<svg width="48" height="48" viewBox="0 0 48 48" fill="none" xmlns="http://www.w3.org/2000/svg">
<g clip-path="url(#clip0_81_3084)">
<path d="M25.812 20.8102C25.812 27.351 20.9648 32.6572 14.9985 32.6572C9.03001 32.6572 4.18427 27.3472 4.18427 20.8102V14.4825C4.18427 7.94171 9.03001 2.63696 14.9985 2.63696C20.9648 2.63696 25.812 7.93946 25.812 14.4825V20.8102Z" fill="#593212"/>
<path d="M0.40125 38.7818C0.58575 38.5793 29.628 38.7975 29.628 38.7975V48.1418H0.3405C0.3405 48.1418 0.2175 38.9828 0.40275 38.7818" fill="#EC6A24"/>
<path d="M18.588 38.7968C18.588 38.7968 47.3955 39.0623 47.616 39.2333C47.841 39.405 47.5455 48.1455 47.5455 48.1455H18.588V38.7968Z" fill="#77B72D"/>
<path d="M39.3225 39.2775H47.6325L47.3085 36.996C46.803 33.411 44.5515 30.6638 42.2857 30.8655C40.0207 31.0688 38.5957 34.134 39.0967 37.7228L39.321 39.2775" fill="#77B72D"/>
<path d="M39.3225 39.2775H47.4188C47.4848 39.2303 47.5583 39.1898 47.6183 39.15L47.3168 36.996C46.8098 33.411 44.5568 30.6638 42.2925 30.8655C40.0275 31.0688 38.6055 34.134 39.108 37.7228L39.3225 39.2775Z" fill="#77B72D"/>
<path d="M42.33 39.2775V35.7308C42.33 30.3398 37.4378 25.9733 31.404 25.9733C25.3665 25.9733 20.4713 30.3413 20.4713 35.7308V39.2775H42.3263" fill="#77B72D"/>
<path d="M7.64624 39.33L7.84574 37.5645C8.29574 33.5775 7.04174 30.1687 5.04674 29.94C3.05474 29.7202 1.07399 32.7712 0.626239 36.7575L0.338989 39.327H7.64624" fill="#EC6A24"/>
<path d="M7.64624 39.33L7.84574 37.5645C8.29574 33.5775 7.04174 30.1687 5.04674 29.94C3.05474 29.7202 1.07399 32.7712 0.626235 36.7575L0.359985 39.15C0.425985 39.201 0.500235 39.2625 0.573735 39.3255L7.64624 39.327" fill="#EC6A24"/>
<path d="M24.3997 39.3299V36.1747C24.3997 31.4399 20.0985 27.5962 14.7915 27.5962C9.48146 27.5962 5.17346 31.4369 5.17346 36.1747V39.3299H24.3997Z" fill="#EC6A24"/>
<path d="M9.56471 30.7035H20.013C20.0977 30.7035 19.5427 26.25 19.5427 25.641C19.5427 25.5967 9.94646 25.563 9.94646 25.563C9.94646 25.563 9.47921 30.7035 9.56471 30.7035Z" fill="#EC6A24"/>
<path d="M20.3325 25.53H9.92325C9.81975 26.676 9.22275 30.0135 9.54375 30.2303C9.834 30.4268 13.5592 30.7328 15.1267 30.7328C16.6965 30.7328 20.4217 30.4268 20.7112 30.2303C21.033 30.0135 20.4352 26.676 20.3325 25.53Z" fill="#AD4B16"/>
<path d="M38.1795 25.9725H27.7703C27.6675 27.1193 27.069 30.456 27.3908 30.6728C27.6818 30.87 31.4063 31.1753 32.9738 31.1753C34.5413 31.1753 38.2688 30.87 38.5575 30.6728C38.88 30.4553 38.2823 27.1193 38.1795 25.9725Z" fill="#547B26"/>
<path d="M21.3323 19.0282C21.0983 23.829 26.2328 27.9697 32.8125 28.2922C39.387 28.6162 44.9025 24.9937 45.138 20.1922C45.3735 15.399 40.623 3.31723 34.0478 2.99773C27.4673 2.67448 21.5648 14.2395 21.3323 19.0282Z" fill="#FBBF67"/>
<path d="M47.4675 8.71879C46.7992 6.76954 45.7755 5.93254 44.358 5.03329C44.61 4.80529 44.8777 4.50604 45.237 4.07104C45.3847 3.89254 45.624 3.32854 45.1957 3.34054C41.9715 3.44704 39.3982 0.24454 35.0722 0.39229C32.2537 0.49279 26.6812 1.79854 26.2965 2.08279C24.0075 3.74929 22.5922 6.52579 21.8122 9.42304C21.6232 10.1258 22.62 9.64879 22.8112 9.48604C22.8832 9.42304 22.9657 9.37129 23.04 9.31429C22.9927 10.7985 22.683 12.2475 22.737 13.7423C22.7617 14.5433 24.1822 13.2645 24.309 12.9405C24.6682 12.0345 25.059 11.214 25.5217 10.374C25.5997 10.2255 25.6185 10.1393 25.6072 10.0628C25.6761 10.006 25.7342 9.93747 25.779 9.86029C26.5147 8.28505 27.5957 6.89569 28.9417 5.79529C30.8722 6.09004 32.2252 8.07604 35.0587 7.40479C40.5435 6.10129 42.2932 9.77254 43.3462 15.0053C43.4887 15.7373 44.6947 14.718 44.8387 14.3813C45.6982 12.4515 45.5115 11.0423 45.1687 9.29929C45.4657 9.50179 45.756 9.72004 46.017 9.98929C46.4647 10.3208 47.664 9.29404 47.4675 8.71879Z" fill="#633C17"/>
<path d="M31.125 15.5355C31.0665 16.7077 30.2333 17.6197 29.265 17.5762C28.2968 17.5267 27.5625 16.536 27.6203 15.366C27.6773 14.1937 28.5053 13.2757 29.4765 13.3222C30.4425 13.3695 31.182 14.3595 31.125 15.5355ZM39.4515 15.942C39.393 17.1165 38.5605 18.0292 37.5953 17.982C36.6255 17.9347 35.886 16.9462 35.943 15.7702C36.0015 14.598 36.8325 13.6815 37.803 13.7265C38.7668 13.7745 39.5085 14.7652 39.4515 15.942Z" fill="black"/>
<path opacity="0.6" d="M31.83 19.5825C31.83 18.9135 32.403 18.9292 33.1748 18.9292C33.9525 18.9292 34.638 18.9135 34.638 19.5825C34.638 20.2545 34.008 20.793 33.2333 20.793C32.4593 20.7937 31.83 20.2545 31.83 19.5825Z" fill="#C27929"/>
<path d="M3.64575 19.0147C3.64575 23.5297 8.655 27.1769 14.847 27.1769C21.024 27.1769 26.0363 23.5267 26.0363 19.0147C26.0363 14.5027 21.024 3.3877 14.847 3.3877C8.65575 3.38845 3.64575 14.5034 3.64575 19.0147Z" fill="#FBBF67"/>
<path d="M12.6765 15.282C12.6765 16.3852 11.9347 17.2837 11.0287 17.2837C10.1175 17.2837 9.38397 16.3852 9.38397 15.282C9.38397 14.1727 10.1182 13.2825 11.0287 13.2825C11.934 13.284 12.6765 14.172 12.6765 15.282ZM20.5095 15.282C20.5095 16.3852 19.77 17.2837 18.8617 17.2837C17.949 17.2837 17.208 16.3852 17.208 15.282C17.208 14.1727 17.9475 13.2825 18.8617 13.2825C19.7692 13.284 20.5095 14.172 20.5095 15.282Z" fill="black"/>
<path d="M37.7475 22.8473C37.7475 24.0447 37.2718 25.1932 36.4251 26.0399C35.5784 26.8866 34.43 27.3623 33.2325 27.3623C32.0351 27.3623 30.8867 26.8866 30.0399 26.0399C29.1932 25.1932 28.7175 24.0447 28.7175 22.8473" fill="#FD8080"/>
<path d="M36.975 23.3025C36.975 24.297 35.2658 25.1055 33.159 25.1055C31.0538 25.1055 29.346 24.297 29.346 23.3025" fill="white"/>
<path d="M19.6575 20.325C19.6571 21.6034 19.1491 22.8294 18.2451 23.7335C17.341 24.6375 16.115 25.1456 14.8365 25.146C13.5583 25.1452 12.3327 24.6369 11.429 23.7329C10.5253 22.829 10.0174 21.6032 10.017 20.325" fill="black"/>
<path d="M18.8325 20.8094C18.8325 21.8737 17.0055 22.7332 14.754 22.7332C12.5055 22.7332 10.68 21.8737 10.68 20.8094" fill="white"/>
<path d="M4.53003 18.3427C4.53003 22.5637 9.21303 25.9837 15 25.9837C20.784 25.9837 25.4738 22.5637 25.4738 18.3427C25.4738 14.127 20.784 7.87646 15 7.87646C9.21303 7.87646 4.53003 14.127 4.53003 18.3427Z" fill="#FBBF67"/>
<path d="M12.9698 15.4965C12.9698 16.5285 12.279 17.367 11.4285 17.367C10.5758 17.367 9.89026 16.5285 9.89026 15.4965C9.89026 14.4592 10.5758 13.6267 11.4285 13.6267C12.2798 13.6267 12.9698 14.457 12.9698 15.4965ZM20.295 15.4965C20.295 16.5285 19.6065 17.367 18.7568 17.367C17.901 17.367 17.2095 16.5285 17.2095 15.4965C17.2095 14.4592 17.9018 13.6267 18.7568 13.6267C19.6065 13.6267 20.295 14.457 20.295 15.4965Z" fill="black"/>
<path d="M14.9985 24.5723C15.708 24.5723 16.2832 23.9971 16.2832 23.2876C16.2832 22.578 15.708 22.0028 14.9985 22.0028C14.2889 22.0028 13.7137 22.578 13.7137 23.2876C13.7137 23.9971 14.2889 24.5723 14.9985 24.5723Z" fill="#FD8080"/>
<path d="M19.7692 20.3175C19.7688 21.6228 19.2501 22.8746 18.3271 23.7976C17.4041 24.7206 16.1523 25.2394 14.847 25.2398C13.5416 25.2396 12.2897 24.7209 11.3667 23.7978C10.4436 22.8748 9.92494 21.6229 9.92474 20.3175" fill="#FD8080"/>
<path d="M18.9225 20.8103C18.9225 21.8971 17.061 22.7783 14.7637 22.7783C12.4665 22.7783 10.602 21.8978 10.602 20.8103" fill="white"/>
<path d="M18.2752 4.39579C18.3937 2.57329 15.8917 1.59904 14.541 1.41154C13.188 1.22554 12.249 1.52029 11.1675 1.92154C8.05799 3.07129 5.98499 5.77279 4.49399 8.50879C2.43149 11.5238 0.977994 14.7435 1.47899 18.5475C1.77074 20.7698 2.79074 22.86 3.94274 24.7853C4.67549 26.0078 5.53274 27.1553 6.23549 28.395C6.68999 29.1975 6.13049 32.0048 4.67549 32.1233C3.22124 32.2373 3.24149 35.8253 6.62174 35.8133C9.78824 35.7998 10.9597 32.9948 10.302 30.4545C9.64424 27.9158 6.82199 26.7968 6.41174 24.5655C6.05099 22.5975 5.97674 19.5345 6.58349 17.643C7.07699 15.9083 8.24324 13.0613 9.54974 11.8103C11.3047 10.128 11.6707 10.0718 12.8355 8.86878C14.6887 6.96229 18.5992 7.06729 18.2775 4.39579" fill="#7C4622"/>
<path d="M18.2655 4.248C17.187 5.28225 16.0155 6.2325 14.826 7.17075C12.4823 9.02399 9.74701 10.4055 8.01601 12.8632C5.94451 15.8092 4.75951 18.8422 5.11126 22.4197C5.37151 25.0327 7.30576 26.748 8.01151 29.1667C8.67076 31.4242 7.74601 35.4157 4.29676 33.6817C3.31801 33.192 3.84301 35.82 6.60826 35.8095C9.77626 35.7975 10.9545 32.991 10.2983 30.4522C9.64051 27.9135 7.79176 26.9572 7.00126 24.5617C6.37351 22.6612 5.97301 19.5307 6.57976 17.64C8.43751 12.3037 11.7098 10.3297 12.9698 9.22274C13.4865 8.7675 17.5808 6.09825 18.2648 4.38825C18.267 4.34175 18.2633 4.2945 18.2633 4.245" fill="#593212"/>
<path d="M2.67075 22.2383C2.22675 19.116 2.87775 15.9495 4.43625 13.1558C5.97075 10.4055 7.76625 8.10452 10.512 6.32777C12.1072 5.29502 14.769 3.79202 16.455 2.01527C15.8479 1.71976 15.2 1.517 14.5327 1.41377C13.1812 1.22777 12.2415 1.52327 11.1577 1.92452C8.04825 3.07427 5.97825 5.77502 4.48425 8.51252C2.42475 11.5275 0.969746 14.7458 1.46925 18.5513C1.65225 19.95 2.124 21.2948 2.73525 22.581C2.715 22.4663 2.6865 22.3515 2.67075 22.2383Z" fill="#864F28"/>
<path d="M25.7475 9.97947C24.6383 5.85897 21.723 1.73472 18.312 2.63697C16.0148 3.24447 14.637 6.31722 14.8275 7.17447C15.186 8.76372 18.1995 9.31197 19.7685 11.097C21.135 12.6525 22.3133 13.7565 23.4645 15.4072C24.4905 16.8817 23.6273 20.22 23.6678 21.192C23.706 22.1685 22.956 24.663 22.317 25.6642C21.9555 26.235 22.6035 27 23.0483 26.541C27.072 22.3567 27.3353 15.8932 25.7475 9.98097" fill="#7C4622"/>
<path d="M22.9455 10.2945C24.753 12.0788 25.7955 14.106 26.352 16.5083C26.4615 16.986 26.5372 17.493 26.586 18.0233C26.7915 15.4005 26.4577 12.6353 25.7452 9.97652C24.636 5.85677 21.72 1.73252 18.309 2.63477C16.695 3.06152 15.6195 4.69502 15.1305 5.93177C17.034 7.98452 20.9625 8.33327 22.9455 10.2945Z" fill="#864F28"/>
<path d="M23.0655 15C24.0945 16.4738 23.6228 20.2155 23.6633 21.189C23.7015 22.1633 22.9515 24.66 22.3133 25.659C22.0515 26.0753 22.3185 26.5808 22.653 26.6595C25.6995 22.3568 26.49 15.1238 22.734 12.0608C20.31 10.086 17.025 9.46879 14.8463 7.46704C15.7305 8.98204 17.0303 10.0523 18.924 11.2928C20.7375 12.4808 21.9143 13.3523 23.0655 15Z" fill="#593212"/>
<path opacity="0.6" d="M15.7253 18.9075C15.7253 19.3253 15.3698 19.3178 14.886 19.3178C14.4 19.3178 13.9703 19.3268 13.9703 18.9075C13.9703 18.4868 14.3633 18.15 14.8478 18.15C15.3308 18.15 15.7253 18.4853 15.7253 18.9075Z" fill="#C07929"/>
<path d="M28.7775 42.3751L28.9785 40.6096C29.4255 36.6248 28.1715 33.2161 26.1795 32.9866C24.1875 32.7638 22.209 35.8148 21.7605 39.8041L21.474 42.3751H28.7775Z" fill="#F8AD41"/>
<path d="M28.785 42.3751L28.9845 40.6096C29.4315 36.6248 28.179 33.2161 26.1855 32.9866C24.1943 32.7638 22.2165 35.8148 21.7665 39.8041L21.5018 42.1951C21.5655 42.2513 21.6405 42.3136 21.714 42.3713H28.7873L28.785 42.3751Z" fill="#EC6A24"/>
<path d="M28.8675 42.534H18.1568C18.0713 42.534 18.6398 47.1023 18.6398 47.7173C18.6398 47.7615 28.4798 47.8035 28.4798 47.8035C28.4798 47.8035 28.9568 42.531 28.866 42.531" fill="#009FE0"/>
<path d="M18.915 48.2099H28.0298C28.1078 48.2099 27.6653 47.2837 27.6653 46.7587C27.6653 46.7205 19.29 46.6844 19.29 46.6844C19.29 46.6844 18.8423 48.2099 18.915 48.2099Z" fill="#009FE0"/>
<path d="M14.37 38.1068C14.37 41.7923 18.4612 44.7788 23.514 44.7788C28.5622 44.7788 32.6542 41.7945 32.6542 38.1068C32.6542 34.4243 28.563 25.3418 23.514 25.3418C18.4605 25.3403 14.37 34.4243 14.37 38.1068Z" fill="#FBBF67"/>
<path d="M34.9193 31.74C34.2788 29.9925 33.3855 29.2732 32.1533 28.5157C32.3565 28.296 32.5695 28.0087 32.8568 27.6C32.9738 27.4267 33.147 26.9002 32.7908 26.9295C30.0878 27.1747 27.7943 24.3637 24.1658 24.6937C21.8003 24.9097 17.1773 26.346 16.8638 26.625C15.0068 28.2442 13.9365 30.8422 13.4003 33.5212C13.2698 34.1677 14.0873 33.693 14.2418 33.5332C14.2973 33.471 14.3678 33.423 14.4225 33.3652C14.448 34.7205 14.2478 36.0585 14.3505 37.4167C14.406 38.1495 15.546 36.9157 15.642 36.6172C15.9045 35.7757 16.1985 35.0077 16.5563 34.2255C16.6155 34.0845 16.6268 34.0012 16.6155 33.9345C16.6691 33.8775 16.7133 33.8124 16.7468 33.7417C17.334 32.2155 18.171 30.945 19.2405 29.8942C20.877 30.072 22.089 31.8255 24.444 31.089C28.998 29.6572 30.6165 32.9265 31.7145 37.6552C31.863 38.3197 32.8373 37.332 32.9445 37.0207C33.5873 35.22 33.3735 33.9427 33.0195 32.3662C33.2775 32.538 33.5288 32.7255 33.7575 32.9587C34.1408 33.246 35.1098 32.2537 34.9193 31.74Z" fill="#633C17"/>
<path d="M21.7478 38.325C21.7478 39.2257 21.1433 39.9585 20.3985 39.9585C19.6538 39.9585 19.0545 39.2257 19.0545 38.325C19.0545 37.4212 19.6553 36.6877 20.3985 36.6877C21.1433 36.6877 21.7478 37.422 21.7478 38.325ZM28.1423 38.325C28.1423 39.2257 27.537 39.9585 26.793 39.9585C26.052 39.9585 25.4513 39.2257 25.4513 38.325C25.4513 37.4212 26.0535 36.6877 26.793 36.6877C27.5408 36.6877 28.1423 37.422 28.1423 38.325Z" fill="black"/>
<path opacity="0.6" d="M22.8675 40.6126C22.8675 40.3051 23.1292 40.3103 23.4877 40.3103C23.844 40.3103 24.162 40.3043 24.162 40.6126C24.162 40.9231 23.8725 41.1721 23.514 41.1721C23.1577 41.1721 22.8675 40.9238 22.8675 40.6126Z" fill="#C27929"/>
<path d="M25.9223 41.9452C25.9223 42.584 25.6687 43.1966 25.2173 43.6486C24.7659 44.1006 24.1536 44.3549 23.5148 44.3557C22.8757 44.3553 22.263 44.1012 21.8113 43.6491C21.3595 43.1971 21.1058 42.5842 21.1058 41.9452" fill="#FD8080"/>
<path d="M25.5075 42.1875C25.5075 42.7192 24.5955 43.1498 23.472 43.1498C22.347 43.1498 21.4357 42.7192 21.4357 42.1875" fill="white"/>
</g>
<defs>
<clipPath id="clip0_81_3084">
<rect width="48" height="48" fill="white"/>
</clipPath>
</defs>
</svg>
