<svg width="48" height="48" viewBox="0 0 48 48" fill="none" xmlns="http://www.w3.org/2000/svg">
<g clip-path="url(#clip0_81_3136)">
<path d="M46.9275 9.69223C45.3278 5.11573 41.5575 1.31698 36.795 0.792725C34.095 0.534725 31.3793 0.713975 28.9043 1.96198C26.9588 2.94298 25.3995 4.58697 23.9993 6.28422C22.2743 4.21872 20.37 2.37373 17.8538 1.41373C16.3388 0.836975 14.6948 0.669725 13.0898 0.679475C11.7008 0.690725 10.2983 0.830225 8.97001 1.28248C6.53701 2.11048 4.50226 3.83023 2.98201 5.94898C2.5378 6.57391 2.14764 7.23555 1.81576 7.92673C1.47976 8.61748 1.19326 9.33598 0.948761 10.065C-1.20149 17.2395 0.0960114 26.0595 7.11451 30.0997C7.82251 30.5857 8.55751 31.0522 9.30376 31.506C11.538 32.8725 13.8713 34.1587 15.9105 35.7495C16.4888 36.2932 17.001 36.87 17.418 37.4955C18.2513 38.7465 18.6765 40.1895 18.471 41.9152C18.6758 43.632 17.142 44.8597 17.142 46.701C17.4503 49.1535 27.732 43.5765 28.6058 43.0035C35.8553 38.7247 43.218 33.201 46.095 24.741C46.5661 23.6525 46.9584 22.5317 47.2688 21.387C48.2978 17.5935 48.222 13.398 46.9253 9.69223" fill="#EC6A24"/>
<path d="M44.5425 10.3815C44.5103 9.70573 44.3789 9.03834 44.1525 8.40078C43.9475 7.81954 43.6562 7.27243 43.2885 6.77778C41.1375 3.86478 36.663 2.96328 32.9903 3.86478C31.5638 4.26903 30.135 4.86828 29.526 6.27303C29.3213 6.87528 30.135 7.27578 30.5438 7.07478C33.195 6.67128 36.153 6.82728 38.55 7.87803C39.1535 8.14203 39.714 8.46278 40.2315 8.84028C41.9693 10.0853 42.7823 12.0915 43.191 14.0978C44.004 13.8998 44.4158 12.897 44.4833 12.015C44.5674 11.4758 44.5873 10.9285 44.5425 10.3845" fill="#FFA06D"/>
</g>
<defs>
<clipPath id="clip0_81_3136">
<rect width="48" height="48" fill="white"/>
</clipPath>
</defs>
</svg>
