<svg xmlns="http://www.w3.org/2000/svg" width="495.42944pt" height="300pt" fill-rule="evenodd" viewBox="0 0 495.42944 299.99999"><path d="m166.942 1135.17-5.643-5.64-22.398 22.4 43.211 43.21 43.216-43.21-37.573-37.57zm48.254 19.13c0 4.01-14.499 7.25-32.397 7.25-17.892 0-32.394-3.24-32.394-7.25 0-.36.188-.69.375-1.05.864-1.64 9.492-5.14 27.08-5.67l-2.362-2.03c5.134-.69 12.398-.29 12.398-.29 16.776.27 27.3 5.21 27.3 9.04z" style="fill:#00817a;stroke:none" transform="translate(-534.01 -1378.076)"/><path d="M271.359 1143.92v-5.96h-33v5.96h13.352l-16.267 16.24 7.852 3.65 11.563-12.8 11.56 12.8 7.749-3.65-16.164-16.24zM293.895 1164.38h9.578v-26.44h-9.578z" style="fill:#2c2c2b;stroke:none" transform="translate(-534.01 -1378.076)"/><path d="M277.131 1147.62h-6.07v5.95h6.07v10.78h9.574v-26.47h-9.574zM350.857 1153.59h10.665v10.1h9.581v-25.78h-9.581v9.73h-10.665z" style="fill:#2c2c2b;stroke:none" transform="translate(-534.01 -1378.076)"/><path d="m322.748 1163.79 11.586-10.98 11.691 10.98 7.413-3.88-15.948-13.53h13.367v-5.96H339.06v-4.39h-9.572v4.39H317.81v5.96h13.368l-16.063 13.53zM327.455 1166.6h-9.588v14.07h53.514v-5.96h-43.926zM433.678 1137.96v27.13h9.588v-27.13zM387.156 1160.13l7.862 3.66 11.564-15.44 11.566 15.44 7.743-3.66-19.309-24z" style="fill:#2c2c2b;stroke:none" transform="translate(-534.01 -1378.076)"/><path d="M280.1 1335.18c-.286-5.9.327-10.74-2.342-15.65-1.769-3.85-7.628-6.21-11.236-8.08-5.507-2.87-12.89-7.55-16.91-11.46-9.808 18.83-7.523 37.8-7.523 37.8s16.734 8.39 37.167 9.29c.603-4.29.977-8.48.844-11.9z" style="fill:#009fe0;stroke:none" transform="matrix(1.8057 0 0 1.8057 -282.856 -2232.647)"/><path d="M255.505 1296.27c9.011 5.5 20.425 10.71 35.226 9.57 13.226-1.02 37.851-9.18 55.388-14.92 1.836-.61 5.67-2.61 5.674-7.13.715-14.15-1.445-34.03-16.051-47.35 0 0-7.269 20.39-42.88 30.8-18.36 5.04-30.16 14.08-37.73 24.04-2.415 2.72-.559 4.42.373 4.99zm67.513-21.67c-.418-.46-.668-.73-.586-.94.224-.55.845-.37.845-.37 2.616.37 5.498.26 5.498.26.991-4.31-3.904-10.9-3.904-10.9-2.062-2.92.229-2.19.229-2.19 3.488.5 6.162 3.39 7.537 5.32.73 1.03 2.326 4.08 2.326 4.08 1.941-3.65 5.517-1.41 5.517-1.41-1.156.71-2.429 4.02-2.429 4.02-2.824 7.51-7.106 7.82-10.588 10.76-3.488 2.95-3.182 1.32-1.354-1.55 1.651-2.59 2.114-4.02 2.114-4.02-1.055.66-4.09.6-4.09.6-2.754-.16-.448-.77-1.496-1.38-1.957-1.17 1.293-1.29.381-2.28zm-39.939 13.22c1.65-4.55 5.959-6.18 5.959-6.18 9.961-2.55 12.44 6.62 20.228 8.49-2.248 1.95-13.801 13.25-21.041 11.76-6.682-1.1-7.184-8.45-5.146-14.07z" style="fill:#77b72d;stroke:none" transform="matrix(1.8057 0 0 1.8057 -282.856 -2232.647)"/><path d="M298.699 1319.23c-4.607 7.29-1.192 16.88.233 23.78.101.51.246 1.31.441 2.31 18.395-3.97 39.383-15.22 50.006-44.47 0 0 .269-1 .633-2.77-16.117 5.33-47.682 15.4-51.313 21.15zM371.268 1368.61c.226-.14.347-.28.353-.43a34.922 34.922 0 0 0-.594-5.6c-.351-1.87-.842-3.45-1.47-4.75-.416-.94-.924-1.69-1.524-2.25-.599-.57-1.291-.86-2.08-.89-.226-.01-.576.21-1.041.66-.471.44-.844.66-1.127.65-.226-.01-.588-.09-1.088-.26-.5-.16-.892-.25-1.174-.26-.228-.01-.568.07-1.025.25a2.44 2.44 0 0 0-1.137.91c1.065.24 1.891.7 2.489 1.38.595.68 1.015 1.52 1.259 2.5.393 1.49.598 3.22.608 5.2.008 1.98-.166 4.04-.532 6.17a45.517 45.517 0 0 0-.167 3.37c-.014 1.13-.01 2.18.009 3.16.6.51 1.235.94 1.899 1.28.664.34 1.363.53 2.094.56.732.02 1.632-1.02 2.701-3.13 1.064-2.11 1.634-4.14 1.709-6.1.005-.14-.129-.3-.407-.45-.277-.16-.125-.42.454-.79-.053-.15-.135-.18-.252-.08-.114.09-.221-.14-.313-.68.004-.14.125-.29.356-.42zM356.074 1358.5c-.051-.15-.789-.39-2.215-.71-1.425-.32-2.283-.49-2.564-.5-1.52-.06-2.148.21-1.889.81.26.6-.021 1.27-.838 2.02-.406.28-1.627 1.58-3.66 3.9-2.035 2.32-3.191 3.47-3.474 3.46-.223-.01-.502.18-.827.56-.324.37-.662.75-1.013 1.13-.221-.1-.403-.17-.543-.2-.141-.03-.239-.07-.291-.12.025-.64.041-1.44.047-2.42.009-.98.326-2.21.945-3.71.426-2.28-.404-3.87-2.484-4.79-2.08-.9-4.053-1.39-5.913-1.46-1.859-.07-3.293.14-4.298.64-1.006.5-1.907.79-2.696.85-.058.05-.107.17-.142.36-.035.2-.194.29-.477.28-.224-.01-.707.03-1.445.13-.737.09-1.244.14-1.525.13-.227-.01-.493-.09-.797-.22-.307-.13-.573-.2-.795-.21-.563-.02-1.041.23-1.424.75-.391.53-.594 1.06-.613 1.59-.006.2.074.7.242 1.52.164.81.359 1.34.572 1.59.428.65 1.066 1.3 1.918 1.95.848.64 1.469.97 1.865.98 2.311.09 4.014-.58 5.115-2.01 1.094-1.42 2.29-2.11 3.586-2.06.284.01.479.07.586.17.11.1.19.2.245.3l-1.139 5.46c-.016.39-.158.87-.434 1.45-.275.58-.258 1.22.057 1.91-.063.09-.391.54-.983 1.32-.593.78-.9 1.4-.916 1.83-.002.05.333.91 1.004 2.57.67 1.67 1.371 2.51 2.102 2.54.283.01.889.06 1.816.14.928.08 1.758.09 2.496.02.301-.52.547-1.07.737-1.62.193-.55.349-1.05.482-1.49.125-.29.264-1.15.436-2.58.166-1.44.81-2.13 1.941-2.09.959.03 2.051.56 3.281 1.59 1.231 1.02 2.325 1.55 3.283 1.59.506.02 1.081-.22 1.717-.71.639-.49.971-1 .993-1.54.019-.54-.243-1.12-.782-1.75-.541-.63-1.113-1.13-1.72-1.5a42.363 42.363 0 0 1 2.925-3.55c1.004-1.09 1.522-1.44 1.563-1.05.047 1.82.054 4.19.029 7.12-.025 2.94.178 4.68.606 5.23 1.316-.49 2.597-1.2 3.847-2.13 1.248-.93 1.883-1.73 1.91-2.42.069-1.8.09-4.59.063-8.36-.027-3.76-.199-5.99-.512-6.69zM430.908 1389.78c-.287.18-2.931 1.11-7.93 2.78-5.003 1.67-8.375 2.47-10.119 2.4-.341-.01-.392-.16-.152-.44.233-.29.297-.48.19-.58.347-1.75 1.857-4.38 4.527-7.9 2.672-3.52 4.058-6.54 4.154-9.08.069-1.86-.611-4.08-2.035-6.68-1.426-2.6-2.057-6.04-1.893-10.34.059-1.61.245-3.57.557-5.89.313-2.3.617-3.7.922-4.18a5.36 5.36 0 0 1 1.139-1.06c.462-.32.699-.6.709-.85.019-.54-.412-1.04-1.297-1.51-.885-.48-1.61-.72-2.172-.75-.227 0-.783.2-1.674.6-.891.41-1.649.67-2.272.79-1.273.89-1.957 2.49-2.044 4.81-.088 2.32-.541 3.9-1.362 4.75-.121.19-1.744 1.62-4.861 4.29-3.119 2.67-5.688 4.6-7.707 5.8-.291.18-.608.33-.947.44-.342.11-.659.21-.944.29a7.93 7.93 0 0 0-.963-.25c-.308-.06-.519-.1-.632-.1-.334-.06-.428-.26-.274-.6.154-.33.176-.53.065-.58.218-1.26 1.169-2.6 2.859-4 1.691-1.41 2.305-2.77 1.848-4.11-.153-.4-.459-.97-.909-1.72-.453-.75-.814-1.28-1.082-1.59-1.236-.14-1.992-.34-2.261-.59-.274-.26-.663-.42-1.168-.49-.174.09-.36.17-.561.24-.199.07-.355.09-.467.09-.22-.11-.759-.09-1.609.05-.853.14-1.332.16-1.44.06-.287.03-.626.13-1.029.29-.4.15-.742.23-1.023.22-.336-.06-.774-.06-1.315.02-.537.08-1.089.08-1.648.01.24-.43.264-.62.064-.59-.201.05-.324-.13-.363-.52.115-.05.404-.25.873-.63.465-.37.725-.58.785-.63.121-.29.537-.84 1.246-1.64.707-.81 1.172-1.18 1.395-1.12.285.01.646.06 1.096.15.447.09.81.16 1.091.23.508.02 1.459-.18 2.858-.59 1.396-.42 2.162-.87 2.295-1.35.064-.24-.051-.63-.336-1.18-.291-.55-.569-1.03-.836-1.43.117-.09.219-.14.301-.14.084.01.181-.01.298-.06l-9.355-3.28c-.228.04-.441.08-.641.12-.197.04-.437.06-.718.05-.282-.06-.491-.14-.625-.25-.137-.1-.348-.16-.629-.17-.282-.05-.649-.05-1.104.03a3.64 3.64 0 0 1-1.269.03c.634 1.2 1.119 2.08 1.466 2.66.344.57.625.96.846 1.17.862 1.01 1.662 1.52 2.395 1.56.728.02 1.281.38 1.65 1.08-.232.14-.297.4-.199.77.1.36.094.55-.02.55-.174.14-.42.3-.738.48-.318.19-.535.32-.65.42-.702.66-1.555 1.22-2.561 1.7-1.006.47-1.601.98-1.791 1.5-.285.09-1.23.46-2.834 1.11-1.603.65-2.443 1.17-2.512 1.55-.072.34.372 1.32 1.327 2.92.955 1.6 2.193 2.48 3.709 2.63.281.06 1.708-.08 4.291-.42 2.578-.35 4.009-.51 4.292-.5.278.06.489.11.627.17.139.05.235.15.288.3-.422.62-.938 1.24-1.551 1.85-.617.61-1.332 1.22-2.143 1.83.239 1.08.098 1.45-.426 1.12-.521-.34-.996-.1-1.421.71-.124.29-.19.6-.202.91-.013.32-.082.57-.201.77-.238.33-.83 1.1-1.777 2.31-.951 1.21-1.494 2.16-1.633 2.84-.004.1-.219.65-.654 1.66-.434 1.01.109 1.59 1.625 1.75.615.21 1.158.42 1.627.61.474.19 1.16.35 2.056.48.338.01.953-.23 1.85-.74.893-.5 1.486-.92 1.781-1.25.471-.52.715-1.41.737-2.69.017-1.27.744-2.14 2.172-2.63.564.02 1.417.2 2.562.54 1.141.33 1.824.56 2.047.66.721.32 1.117 1.03 1.189 2.14.071 1.1.739 2.09 2.002 2.97.34.01.508.01.51-.02.002-.02.172-.03.51-.01.277.05.388.12.332.19-.061.08-.01.23.15.48.615.08 1.338.08 2.156.01.821-.06 1.272-.34 1.344-.83-.023-.83.063-1.66.26-2.48.205-.82.115-1.54-.256-2.14a6.14 6.14 0 0 0-1.09-1.4 9.423 9.423 0 0 0-1.357-1.04c1.625-1.21 3.261-2.63 4.902-4.25 1.639-1.63 3.043-2.95 4.213-3.99.406 2.66.648 4.79.731 6.38.08 1.59.781 3.63 2.099 6.12.258.56.668 1.29 1.227 2.22.556.92.814 1.95.771 3.07-.103 2.78-1.828 6.19-5.166 10.22-3.342 4.03-5.035 6.73-5.086 8.1-.025.68.184 1.44.633 2.29.447.85 1.092 1.29 1.937 1.32 1.409.06 3.153-.24 5.239-.9 2.086-.65 3.5-1.21 4.254-1.67.459-.23 2.638-1.16 6.535-2.8 3.902-1.64 5.859-2.7 5.877-3.19.013-.29.127-.81.353-1.56.227-.75.258-1.18.09-1.28z" style="fill:#ec6a24;stroke:none" transform="matrix(1.8057 0 0 1.8057 -282.856 -2232.647)"/><path d="m213.993 1356.36 1.734 1.29c.347.27.726.44 1.122.51l1.511.13h2.905c.286 0 .556-.1.801-.29.262-.2.39-.47.39-.84 0-.28-.11-.54-.321-.76-.222-.22-.547-.33-.964-.33a15.5 15.5 0 0 1-3.317-.35 10.49 10.49 0 0 1-2.823-1.04l-.664-.11c-.248.01-.448.13-.599.36-.13.2-.199.41-.199.62 0 .06.007.12.02.18.049.27.188.48.404.63zm-16.875 11.79 1.054-1.24.059.44c.035.26.113.44.234.57.173.19.378.29.594.29h7.307v1.41c.021.01.014 5.61.014 5.61 0 .05.038.08.087.08h.633c.546 0 .999-.25 1.35-.76.345-.5.514-1.27.514-2.36l.039-8.26v-9.27c0-.31-.075-.6-.234-.87l-.178-.28a1.114 1.114 0 0 0-1.005-.43l-1.088-.01c-.058.01-.132.04-.132.15v5.42h-7.24a.827.827 0 0 0-.629.28c-.106.11-.177.26-.221.49l-.095.39-1.063-1.3a6.966 6.966 0 0 0-2.175-1.42 6.869 6.869 0 0 0-2.731-.54c-1.017 0-1.966.18-2.814.54a6.54 6.54 0 0 0-2.156 1.42 6.627 6.627 0 0 0-1.426 2.16 7.02 7.02 0 0 0-.506 2.65c0 .95.17 1.85.506 2.66.339.82.818 1.53 1.431 2.12.6.61 1.336 1.08 2.186 1.42.845.34 1.783.5 2.788.48.97.02 1.885-.14 2.719-.46.839-.33 1.573-.8 2.178-1.38zm1.601-7.13-.085-.3.459.06h7.273v5.29h-7.273l-.554.08.12-.32c.303-.79.454-1.64.454-2.52 0-.78-.131-1.55-.394-2.29zm-6.507 6.95c-1.191 0-2.175-.43-3.006-1.33-.821-.88-1.235-2.01-1.235-3.33 0-1.33.414-2.44 1.235-3.32.831-.88 1.814-1.31 3.006-1.31 1.192 0 2.183.43 3.021 1.33.845.9 1.251 1.97 1.251 3.3 0 1.35-.406 2.44-1.251 3.33-.84.9-1.831 1.33-3.021 1.33zm-9.068-3.84h-4.468v-9.47c0-.42-.136-.79-.404-1.1-.269-.32-.61-.48-1.013-.48l-1.086-.01c-.063.01-.134.04-.134.15v28.94c0 .07.053.13.122.13h.616c.558 0 1.019-.27 1.378-.78.348-.51.521-1.29.521-2.38v-12.89h4.5c.22 0 .424-.1.612-.29.189-.18.283-.43.283-.74 0-.34-.094-.61-.283-.79a.856.856 0 0 0-.644-.29zm61.194 1.29a6.952 6.952 0 0 0 2.222 1.42c.864.35 1.863.52 2.97.52 1.049 0 2.007-.17 2.853-.51.85-.33 1.593-.79 2.202-1.36a6.647 6.647 0 0 0 1.408-2.05c.336-.76.508-1.59.508-2.46 0-.8-.172-1.59-.508-2.35a6.844 6.844 0 0 0-1.434-2.07 7.035 7.035 0 0 0-2.197-1.48c-.859-.38-1.809-.56-2.832-.56-1.085 0-2.074.18-2.937.56a6.9 6.9 0 0 0-2.221 1.48 6.337 6.337 0 0 0-1.4 2.07 6.21 6.21 0 0 0-.477 2.37c0 .81.16 1.61.477 2.38a6.36 6.36 0 0 0 1.366 2.04zm1.011-6c.187-.51.471-.97.842-1.37.38-.42.838-.75 1.406-1 .548-.25 1.202-.38 1.941-.38a4.72 4.72 0 0 1 1.848.41 4.2 4.2 0 0 1 1.375 1c.379.39.673.86.873 1.38.197.52.295 1.01.295 1.52s-.099 1.03-.297 1.55c-.198.51-.49.97-.86 1.36-.385.42-.851.76-1.386.99-.546.24-1.172.37-1.856.37-.68 0-1.311-.13-1.872-.39a4.218 4.218 0 0 1-1.401-.97 4.398 4.398 0 0 1-.894-1.38 4.179 4.179 0 0 1-.296-1.53c0-.53.095-1.05.284-1.56zm42.475 15.71h-11.308v-6.41h5.043c.364 0 .635-.11.822-.33.183-.22.269-.47.269-.76 0-.25-.095-.48-.288-.71-.19-.23-.482-.35-.836-.35H271.32s-.413-.17-.415-.18l-.168-.48v-7.86l3.223.01h7.083c.231 0 .439-.1.638-.31.193-.21.29-.46.29-.75 0-.27-.113-.53-.338-.78-.231-.25-.472-.38-.722-.38l-11.607-.02-1.083-.02c-.051.02-.131.05-.131.16l.005 3.63v6.94c0 .93.287 1.53.848 1.81.527.25 1.032.38 1.505.38h3.495v6.41h-11.374c-.357 0-.649.13-.843.37-.192.24-.286.47-.286.69 0 .28.096.55.286.78.197.25.486.38.843.38h25.255c.36 0 .64-.12.839-.36.191-.22.29-.48.29-.77 0-.22-.094-.45-.286-.71-.198-.25-.472-.38-.843-.38zm-78.494 6.48c-.211-.22-.491-.33-.839-.33h-10.92c-.229 0-.383-.05-.464-.15l-.082-.12v-6.3c0-.42-.134-.78-.398-1.1-.272-.31-.615-.48-1.019-.48l-1.088-.01c-.06.02-.131.05-.131.16l-.009 7.4c0 1.06.274 1.78.814 2.16.552.39 1.396.59 2.502.59h10.826c.354 0 .627-.13.829-.38.193-.24.291-.49.291-.75 0-.24-.105-.47-.312-.68zm100.842-28.05a1.282 1.282 0 0 0-1.016-.48l-1.088-.01c-.062.01-.13.04-.13.15v28.94c0 .07.054.13.121.13h.615c.556 0 1.017-.27 1.377-.78.351-.51.525-1.29.525-2.38v-24.47c0-.42-.136-.79-.404-1.1zm-7.5 16.31c-.006-.01-6.725-6.12-6.725-6.12l.944-2.4c.259-.81.425-1.59.491-2.33l.012-.31c0-.49-.089-.95-.264-1.37-.227-.54-.761-.82-1.581-.82h-1.07c-.108 0-.161.03-.175.04-.024.04-.011.13.024.22.221 1.31.034 2.17.029 2.22-.083.93-.328 1.98-.735 3.13-.405 1.15-.912 2.3-1.513 3.44a27.74 27.74 0 0 1-1.963 3.2c-.702.99-1.391 1.8-2.049 2.42-.216.19-.337.4-.361.63-.01.08-.078.74.633.91.217.04.458-.03.721-.22 1.091-.81 2.159-1.82 3.176-3.03a26.182 26.182 0 0 0 2.483-3.5l.133-.23.179.19s5.824 6.16 5.839 6.18c.16.23.372.39.596.46.092.03.906.27 1.449-.42.235-.31.297-.67.297-.96 0-.3-.062-.52-.064-.53-.061-.26-.231-.53-.506-.8zm-69.744-16.58-1.09-.01c-.048.01-.13.04-.13.15v29.93c0 .07.052.12.123.12h.613c.557 0 1.019-.26 1.378-.78.349-.51.517-1.29.517-2.38v-25.45c0-.42-.13-.79-.397-1.1a1.282 1.282 0 0 0-1.014-.48zm-5.83 18.51c-.011-.01-5.768-4.53-5.768-4.53l.126-.15c.682-.84 1.214-1.59 1.629-2.29.512-.86.918-1.75 1.209-2.65l.063-.45c0-.24-.057-.49-.167-.74-.196-.44-.568-.66-1.111-.66h-9.693c-.481 0-.731.2-.858.38-.177.24-.269.48-.269.72 0 .28.084.54.252.76.12.16.358.36.811.36h7.616l-.122.28c-.323.73-.724 1.46-1.219 2.21a28.321 28.321 0 0 1-4.906 5.61c-.925.82-1.833 1.47-2.678 1.93-.009.01-.953.63-.592 1.25.116.22.281.36.522.44.236.07.512.03.818-.1 1.102-.5 2.297-1.21 3.553-2.13 1.128-.82 2.258-1.8 3.363-2.92l.135-.14s5.441 5 5.456 5.02c.17.19.384.33.627.39.032.01.769.2 1.381-.46.263-.21.321-.61.321-.92 0-.24-.036-.44-.038-.44-.05-.28-.207-.54-.461-.77zm35.832-.09c.196-.22.288-.46.288-.76 0-.24-.095-.49-.282-.72-.198-.24-.488-.37-.842-.37h-25.259c-.355 0-.643.12-.834.35-.196.23-.289.47-.289.71 0 .29.093.55.289.78.191.23.479.35.834.35h6.631v11.28c0 .06.056.12.117.12h.65c.494 0 .926-.26 1.281-.78.354-.51.522-1.3.522-2.41v-8.21h6.86v11.28c0 .06.055.12.127.12h.644c.489 0 .922-.26 1.291-.78.365-.51.543-1.3.543-2.41v-8.21h6.593c.358 0 .639-.11.836-.34zm-90.253-.87c-.029-.02-5.941-4.88-5.941-4.88l.11-.15a22.803 22.803 0 0 0 1.803-2.9c.561-1.09.978-2.21 1.234-3.33l.031-.28-.179-.82c-.173-.45-.534-.68-1.066-.68h-9.627c-.462 0-.708.2-.829.37-.17.24-.258.48-.258.72s.081.48.244.7c.168.24.421.35.78.35h7.746l-.078.26c-.319 1.05-.784 2.1-1.38 3.13a29.895 29.895 0 0 1-2.38 3.51 33.295 33.295 0 0 1-2.742 3.08c-.945.93-1.811 1.66-2.566 2.16-.243.18-.379.36-.417.58l-.01.17s.103.41.116.43c.06.15.198.27.388.35.197.09.427.06.689-.09 1.006-.51 2.157-1.29 3.415-2.31a29.2 29.2 0 0 0 3.443-3.33l.136-.16.148.15s5.283 5.19 5.297 5.21c.195.23.436.38.702.41l-.016.01c.133-.02.336-.04.735-.07.276-.06.521-.23.701-.5.183-.25.273-.55.277-.84l-.102-.58a1.62 1.62 0 0 0-.404-.67z" style="fill:#737375;stroke:#737375;stroke-width:1.00513" transform="matrix(1.8057 0 0 1.8057 -282.856 -2232.647)"/><path d="M200.094 1390.39c.202 0 .365.06.487.18.123.11.184.29.184.52v4.43h5.275v-5.13h1.759v12.02h-1.759v-5.69h-5.275v5.69h-1.759v-10.5c0-.34-.053-.64-.159-.9a1.342 1.342 0 0 0-.56-.62zM217.416 1390.39v1.25H213.1c-.181 0-.33 0-.447.01a.623.623 0 0 0-.274.08.376.376 0 0 0-.134.19c-.028.09-.04.21-.04.35v3.25h4.7v1.2h-4.7v3.77c0 .32.061.52.184.59.122.08.359.12.711.12h4.604v1.19h-7.243v-10.53c0-.3-.049-.58-.15-.83-.101-.26-.291-.47-.568-.64zM222.282 1391.48c0-.21-.031-.4-.089-.59-.058-.18-.194-.35-.407-.5h1.519c.286 0 .506.07.655.2.149.13.283.33.399.58l4.268 11.22h-1.868c-.236-.61-.465-1.23-.69-1.85-.223-.62-.451-1.24-.685-1.87h-4.222l-1.391 3.74h-1.455c.619-1.65 1.235-3.29 1.848-4.93.612-1.64 1.227-3.28 1.844-4.93.076-.21.14-.41.194-.6.052-.2.08-.36.08-.47zm2.637 5.94c-.277-.75-.551-1.5-.823-2.25-.27-.75-.546-1.5-.824-2.27-.277.77-.549 1.52-.814 2.27-.267.75-.539 1.5-.816 2.25zM231.116 1390.39c.203 0 .363.06.48.18.117.11.177.29.177.52v9.28c0 .36.059.59.182.68.124.1.372.15.745.15h4.603v1.19h-7.306v-10.53c0-.3-.049-.58-.152-.83-.1-.26-.289-.47-.567-.64zM241.03 1402.39h-1.775v-10.48c0-.34-.05-.64-.152-.9a1.29 1.29 0 0 0-.551-.62h1.821c.203 0 .363.06.48.18.118.11.177.29.177.52zM245.323 1402.39h-1.422v-10.48c0-.34-.052-.64-.159-.9a1.328 1.328 0 0 0-.561-.62h1.712c.212 0 .428.06.648.19.216.13.395.3.533.51.907 1.47 1.813 2.94 2.72 4.4.906 1.46 1.815 2.93 2.732 4.41v-9.5h1.489v11.99h-1.985l-5.707-9.35zM264.182 1401.81c-.213.09-.475.18-.791.26-.313.09-.657.16-1.023.23-.368.07-.751.13-1.15.18-.401.05-.782.07-1.143.07-.96 0-1.772-.16-2.438-.46a4.16 4.16 0 0 1-1.623-1.3c-.416-.55-.717-1.22-.904-1.99-.187-.77-.279-1.62-.279-2.55 0-.86.098-1.66.295-2.39.197-.73.503-1.36.918-1.89.416-.54.949-.95 1.6-1.25.649-.3 1.428-.45 2.334-.45.681 0 1.269.08 1.759.23.49.15.894.35 1.215.61.319.26.566.57.744.92.174.35.29.73.343 1.12a9.007 9.007 0 0 0-.735 0c-.247.01-.491.01-.735.01a.473.473 0 0 1-.337-.12 1.866 1.866 0 0 1-.247-.32c-.08-.13-.17-.27-.265-.42-.095-.16-.222-.3-.384-.43-.158-.13-.365-.23-.614-.32a3.092 3.092 0 0 0-.935-.13c-.502 0-.942.14-1.319.4-.38.27-.693.63-.944 1.07-.25.45-.441.97-.567 1.55a8.354 8.354 0 0 0-.192 1.81c0 .62.058 1.24.175 1.85.117.61.318 1.16.6 1.65.282.48.659.87 1.136 1.18.474.3 1.073.45 1.798.45.149 0 .314-.01.495-.03.182-.02.365-.05.552-.09.185-.05.359-.1.519-.16.16-.07.299-.14.416-.21v-3.14c0-.26-.057-.52-.168-.76a1.912 1.912 0 0 0-.551-.69h1.79c.214 0 .377.07.488.22.111.14.167.31.167.51zM279.427 1393.1c-.224.01-.453.03-.687.05-.234.02-.463.03-.688.03a.915.915 0 0 1-.431-.12c-.15-.08-.251-.23-.303-.45a1.917 1.917 0 0 0-.201-.43 1.286 1.286 0 0 0-.383-.4 1.972 1.972 0 0 0-.615-.29 2.854 2.854 0 0 0-.88-.12c-.575 0-1.061.16-1.455.46-.394.3-.715.69-.959 1.14-.246.46-.424.96-.536 1.49a7.322 7.322 0 0 0-.168 1.49c0 .33.017.69.048 1.09.033.4.096.81.193 1.21.095.41.232.8.406 1.18.178.39.405.73.688 1.02.282.29.627.53 1.032.7.404.18.885.27 1.438.27.534 0 1.098-.1 1.695-.3a8.77 8.77 0 0 0 1.598-.71c.022.23.042.46.065.69.022.23.044.47.064.7-.245.11-.533.2-.863.3-.332.09-.675.17-1.032.24-.358.06-.717.12-1.079.16-.362.03-.694.05-.991.05-.875 0-1.633-.14-2.28-.42a4.187 4.187 0 0 1-1.605-1.23c-.427-.53-.746-1.18-.959-1.95-.214-.78-.32-1.66-.32-2.65 0-.82.09-1.6.272-2.33.181-.73.474-1.37.88-1.92.403-.55.933-.98 1.582-1.3.649-.32 1.444-.48 2.381-.48.693 0 1.28.07 1.76.22.479.14.878.34 1.198.6.321.25.569.55.744.9.176.35.306.72.391 1.11zM283.156 1402.39h-1.774v-10.48c0-.34-.051-.64-.154-.9a1.273 1.273 0 0 0-.55-.62h1.822c.202 0 .363.06.479.18.119.11.177.29.177.52zM290.575 1391.64v10.75h-1.856v-10.75h-3.644v-1.25h9.209v1.25zM295.913 1391.73a4.46 4.46 0 0 0-.632-.78c-.218-.21-.494-.4-.824-.56h1.887c.289 0 .525.05.711.16.186.11.338.26.456.46l2.653 4.4 3.152-5.02h1.645l-4.141 6.54v5.46h-1.775v-5.46zM313.516 1391.91c0-.34-.051-.64-.155-.9a1.275 1.275 0 0 0-.551-.62h1.807c.203 0 .365.06.488.18.122.11.184.29.184.52v7.44c0 .54-.043 1.06-.129 1.55a3.23 3.23 0 0 1-.504 1.29c-.25.36-.601.65-1.054.87-.454.21-1.043.32-1.766.32-.469 0-.867-.07-1.191-.2a2.3 2.3 0 0 1-.801-.5 2.026 2.026 0 0 1-.469-.73 3.603 3.603 0 0 1-.225-.86l1.743-.14c.007.13.033.28.072.43.035.16.097.3.183.44.086.13.198.24.342.32.145.09.334.13.569.13.277 0 .509-.05.695-.15.187-.1.336-.26.447-.5.114-.22.194-.53.24-.9.047-.37.075-.83.075-1.39zM324.74 1390.39v1.25h-4.314c-.184 0-.332 0-.449.01a.613.613 0 0 0-.272.08.4.4 0 0 0-.137.19c-.025.09-.039.21-.039.35v3.25h4.699v1.2h-4.699v3.77c0 .32.061.52.184.59.123.08.361.12.713.12h4.603v1.19h-7.242v-10.53c0-.3-.051-.58-.152-.83-.102-.26-.291-.47-.569-.64zM335.346 1393.1c-.225.01-.453.03-.688.05-.232.02-.463.03-.687.03a.912.912 0 0 1-.432-.12c-.15-.08-.25-.23-.303-.45a1.962 1.962 0 0 0-.201-.43c-.09-.15-.219-.29-.383-.4a1.963 1.963 0 0 0-.617-.29 2.83 2.83 0 0 0-.879-.12c-.574 0-1.06.16-1.453.46-.394.3-.715.69-.959 1.14-.248.46-.424.96-.537 1.49a7.322 7.322 0 0 0-.168 1.49c0 .33.018.69.049 1.09.031.4.096.81.193 1.21.092.41.231.8.404 1.18.178.39.407.73.688 1.02.283.29.629.53 1.033.7.404.18.885.27 1.44.27.531 0 1.095-.1 1.693-.3.598-.2 1.129-.44 1.6-.71.021.23.043.46.062.69l.065.7c-.244.11-.534.2-.864.3-.328.09-.674.17-1.031.24-.357.06-.717.12-1.078.16-.363.03-.693.05-.992.05-.875 0-1.633-.14-2.279-.42a4.175 4.175 0 0 1-1.606-1.23c-.426-.53-.746-1.18-.959-1.95-.215-.78-.318-1.66-.318-2.65 0-.82.088-1.6.271-2.33.18-.73.473-1.37.877-1.92.406-.55.936-.98 1.584-1.3.651-.32 1.444-.48 2.383-.48.693 0 1.277.07 1.758.22.478.14.879.34 1.199.6.318.25.566.55.742.9.178.35.307.72.393 1.11zM338.17 1390.39a.66.66 0 0 1 .486.18c.123.11.184.29.184.52v4.43h5.275v-5.13h1.76v12.02h-1.76v-5.69h-5.275v5.69h-1.76v-10.5c0-.34-.053-.64-.156-.9a1.344 1.344 0 0 0-.563-.62zM355.492 1390.39v1.25h-4.316c-.18 0-.33 0-.448.01a.622.622 0 0 0-.273.08.396.396 0 0 0-.135.19 1.27 1.27 0 0 0-.039.35v3.25h4.699v1.2h-4.699v3.77c0 .32.061.52.184.59.121.08.359.12.711.12h4.603v1.19h-7.242v-10.53c0-.3-.049-.58-.15-.83-.102-.26-.291-.47-.569-.64zM366.793 1396.45c0 .93-.098 1.78-.289 2.54-.192.76-.486 1.4-.885 1.93a3.82 3.82 0 0 1-1.553 1.23c-.634.29-1.386.43-2.261.43-.885 0-1.645-.14-2.278-.43a3.918 3.918 0 0 1-1.558-1.22c-.407-.53-.701-1.17-.889-1.93-.185-.75-.279-1.61-.279-2.55 0-.95.088-1.81.264-2.57.175-.76.46-1.41.855-1.95.395-.54.906-.95 1.535-1.25.627-.29 1.4-.44 2.317-.44.875 0 1.63.15 2.263.43.633.29 1.155.71 1.559 1.24.404.54.707 1.2.902 1.96.197.77.297 1.63.297 2.58zm-1.855 0c0-.58-.045-1.17-.137-1.76-.09-.6-.254-1.14-.494-1.62a3.345 3.345 0 0 0-.969-1.18c-.404-.31-.926-.46-1.566-.46-.661 0-1.194.15-1.598.44-.404.3-.721.69-.944 1.17a5.542 5.542 0 0 0-.455 1.62c-.08.59-.121 1.19-.121 1.79 0 .55.043 1.12.129 1.71a5.3 5.3 0 0 0 .479 1.59c.236.49.558.88.968 1.18.411.31.936.46 1.575.46.65 0 1.179-.15 1.59-.46.412-.3.73-.69.958-1.17.229-.47.385-1 .465-1.59.08-.58.12-1.16.12-1.72zM370.057 1402.39h-1.424v-10.48c0-.34-.053-.64-.158-.9-.11-.25-.295-.46-.561-.62h1.711c.213 0 .428.06.647.19.218.13.396.3.537.51.904 1.47 1.81 2.94 2.716 4.4l2.735 4.41v-9.5h1.486v11.99h-1.982l-5.707-9.35z" style="fill:#009fe0;stroke:none" transform="matrix(1.8057 0 0 1.8057 -282.856 -2232.647)"/></svg>