<svg width="49" height="49" viewBox="0 0 49 49" fill="none" xmlns="http://www.w3.org/2000/svg">
<path d="M14 23C14 21.8954 14.8954 21 16 21H31V25H16C14.8954 25 14 24.1046 14 23Z" fill="#8ADF28"/>
<g filter="url(#filter0_f_111_2613)">
<path d="M15.8256 23.6161C15.5382 23.5194 15.0749 23.0537 14.8783 22.9177C14.6817 22.7817 14.5511 22.6374 14.5 22.4999C14.449 22.3625 15.1538 21.6206 15.2625 21.5199C15.3711 21.4192 15.5541 21.3471 15.7922 21.3112C16.0304 21.2753 16.315 21.2768 16.6165 21.3157C16.9179 21.3545 18.4944 21.2129 18.7752 21.3157C19.056 21.4185 19.3002 21.5456 19.4822 21.6838C19.6643 21.822 19.7776 21.9662 19.8103 22.1013L16.8505 22.0775L15.8256 23.6161Z" fill="white" fill-opacity="0.5"/>
</g>
<path d="M11.3166 9.61665C5.37508 8.76787 5.99819 0 12 0H32.9584C38.7289 0 40.1296 8.03937 34.6991 9.99094C32.2894 10.8569 30.8827 13.3626 31.3981 15.8707L35.4809 35.7406C36.8165 42.2405 32.1363 48.4343 25.5186 48.9245L25.0605 48.9585C24.6874 48.9861 24.3127 48.985 23.9398 48.9552L20.4279 48.6742C14.9815 48.2385 9.85909 45.9113 5.94821 42.0958L5.69696 41.8507C1.94502 38.1903 5.55024 31.9409 10.5972 33.3565C11.5138 33.6136 12.3393 34.1241 12.9788 34.8292L13.0841 34.9453C16.3767 38.5756 22.4142 36.5294 22.8212 31.6454L24.0759 16.5892C24.314 13.7314 22.2833 11.1833 19.4445 10.7778L11.3166 9.61665Z" fill="url(#paint0_linear_111_2613)"/>
<path d="M15.5 8C16.163 8 16.7989 7.73661 17.2678 7.26777C17.7366 6.79893 18 6.16304 18 5.5C18 4.83696 17.7366 4.20107 17.2678 3.73223C16.7989 3.26339 16.163 3 15.5 3C14.837 3 14.2011 3.26339 13.7322 3.73223C13.2634 4.20107 13 4.83696 13 5.5C13 6.16304 13.2634 6.79893 13.7322 7.26777C14.2011 7.73661 14.837 8 15.5 8Z" fill="url(#paint1_linear_111_2613)"/>
<path d="M28.5 8C29.163 8 29.7989 7.73661 30.2678 7.26777C30.7366 6.79893 31 6.16304 31 5.5C31 4.83696 30.7366 4.20107 30.2678 3.73223C29.7989 3.26339 29.163 3 28.5 3C27.837 3 27.2011 3.26339 26.7322 3.73223C26.2634 4.20107 26 4.83696 26 5.5C26 6.16304 26.2634 6.79893 26.7322 7.26777C27.2011 7.73661 27.837 8 28.5 8Z" fill="url(#paint2_linear_111_2613)"/>
<defs>
<filter id="filter0_f_111_2613" x="12.9974" y="19.7775" width="8.31293" height="5.33862" filterUnits="userSpaceOnUse" color-interpolation-filters="sRGB">
<feFlood flood-opacity="0" result="BackgroundImageFix"/>
<feBlend mode="normal" in="SourceGraphic" in2="BackgroundImageFix" result="shape"/>
<feGaussianBlur stdDeviation="0.75" result="effect1_foregroundBlur_111_2613"/>
</filter>
<linearGradient id="paint0_linear_111_2613" x1="18.8" y1="48" x2="18.8" y2="2.95173e-05" gradientUnits="userSpaceOnUse">
<stop offset="0.0001" stop-color="#8ADF28"/>
<stop offset="0.625" stop-color="#8ADF28"/>
</linearGradient>
<linearGradient id="paint1_linear_111_2613" x1="17.4225" y1="3" x2="15.3175" y2="7.105" gradientUnits="userSpaceOnUse">
<stop stop-color="#553B3E"/>
<stop offset="1" stop-color="#3D2432"/>
</linearGradient>
<linearGradient id="paint2_linear_111_2613" x1="30.4225" y1="3" x2="28.3175" y2="7.105" gradientUnits="userSpaceOnUse">
<stop stop-color="#553B3E"/>
<stop offset="1" stop-color="#3D2432"/>
</linearGradient>
</defs>
</svg>
