<svg width="116" height="115" viewBox="0 0 116 115" fill="none" xmlns="http://www.w3.org/2000/svg">
<path d="M58.5 115C96.8388 115 116 89.2546 116 57.4959C116 25.7454 96.8388 0 58.4959 0C20.1612 0 1 25.7454 1 57.5C1 89.2546 20.1571 115 58.5 115Z" fill="url(#paint0_radial_81_2591)"/>
<path d="M58.5 115C96.8388 115 116 89.2546 116 57.4959C116 25.7454 96.8388 0 58.4959 0C20.1612 0 1 25.7454 1 57.5C1 89.2546 20.1571 115 58.5 115Z" fill="url(#paint1_radial_81_2591)"/>
<path d="M58.5 115C96.8388 115 116 89.2546 116 57.4959C116 25.7454 96.8388 0 58.4959 0C20.1612 0 1 25.7454 1 57.5C1 89.2546 20.1571 115 58.5 115Z" fill="url(#paint2_radial_81_2591)"/>
<path d="M58.5 115C96.8388 115 116 89.2546 116 57.4959C116 25.7454 96.8388 0 58.4959 0C20.1612 0 1 25.7454 1 57.5C1 89.2546 20.1571 115 58.5 115Z" fill="url(#paint3_radial_81_2591)" fill-opacity="0.6"/>
<path d="M58.5 115C96.8388 115 116 89.2546 116 57.4959C116 25.7454 96.8388 0 58.4959 0C20.1612 0 1 25.7454 1 57.5C1 89.2546 20.1571 115 58.5 115Z" fill="url(#paint4_radial_81_2591)"/>
<path d="M58.5 115C96.8388 115 116 89.2546 116 57.4959C116 25.7454 96.8388 0 58.4959 0C20.1612 0 1 25.7454 1 57.5C1 89.2546 20.1571 115 58.5 115Z" fill="url(#paint5_radial_81_2591)"/>
<path d="M58.5 115C96.8388 115 116 89.2546 116 57.4959C116 25.7454 96.8388 0 58.4959 0C20.1612 0 1 25.7454 1 57.5C1 89.2546 20.1571 115 58.5 115Z" fill="url(#paint6_radial_81_2591)"/>
<path d="M58.5 115C96.8388 115 116 89.2546 116 57.4959C116 25.7454 96.8388 0 58.4959 0C20.1612 0 1 25.7454 1 57.5C1 89.2546 20.1571 115 58.5 115Z" fill="url(#paint7_radial_81_2591)"/>
<path fill-rule="evenodd" clip-rule="evenodd" d="M47.8044 47.8953C50.2749 47.8953 51.0683 49.4664 51.181 49.9195C51.3254 50.4997 51.6943 50.9988 52.2067 51.307C52.4604 51.4595 52.7416 51.5607 53.0344 51.6046C53.3272 51.6485 53.6257 51.6343 53.913 51.5628C54.2003 51.4913 54.4707 51.3639 54.7087 51.1879C54.9468 51.0119 55.1479 50.7908 55.3004 50.5371C55.453 50.2834 55.5542 50.0022 55.5981 49.7094C55.642 49.4166 55.6277 49.1181 55.5563 48.8308C55.0491 46.7931 52.7521 43.3871 47.8021 43.3871C42.8521 43.3871 40.5574 46.7931 40.0524 48.8308C39.9266 49.4041 40.0293 50.0038 40.3387 50.5026C40.6482 51.0013 41.14 51.3597 41.7095 51.5015C42.2791 51.6433 42.8815 51.5573 43.3887 51.2619C43.8959 50.9665 44.2678 50.4849 44.4254 49.9195C44.5381 49.4687 45.3316 47.8953 47.8044 47.8953Z" fill="url(#paint8_radial_81_2591)"/>
<path d="M70.5242 52.0165C71.8241 52.0165 73.0707 51.5415 73.9899 50.696C74.909 49.8506 75.4254 48.7039 75.4254 47.5082C75.4254 46.3126 74.909 45.1659 73.9899 44.3204C73.0707 43.475 71.8241 43 70.5242 43C69.2243 43 67.9777 43.475 67.0585 44.3204C66.1394 45.1659 65.623 46.3126 65.623 47.5082C65.623 48.7039 66.1394 49.8506 67.0585 50.696C67.9777 51.5415 69.2243 52.0165 70.5242 52.0165Z" fill="url(#paint9_linear_81_2591)"/>
<path fill-rule="evenodd" clip-rule="evenodd" d="M43.0296 35.5194C43.0296 35.1206 42.8712 34.7381 42.5892 34.4561C42.3072 34.1741 41.9247 34.0156 41.5258 34.0156C39.1979 34.0156 36.2866 34.8698 33.7512 36.5119C31.2007 38.1661 28.9029 40.7106 28.0367 44.1783C27.9505 44.5616 28.0176 44.9633 28.2237 45.2977C28.4299 45.6321 28.7587 45.8725 29.1398 45.9676C29.5209 46.0627 29.9241 46.0048 30.2632 45.8065C30.6022 45.6081 30.8502 45.285 30.9541 44.9062C31.5917 42.3587 33.303 40.3888 35.3903 39.0353C37.4956 37.6729 39.8416 37.0232 41.5258 37.0232C41.9247 37.0232 42.3072 36.8648 42.5892 36.5828C42.8712 36.3008 43.0296 35.9183 43.0296 35.5194Z" fill="url(#paint10_linear_81_2591)"/>
<path fill-rule="evenodd" clip-rule="evenodd" d="M81.9181 33.9791C83.7046 35.6694 84.7813 37.7086 85.2144 39.0018C85.2711 39.196 85.3663 39.3768 85.4944 39.5333C85.6226 39.6899 85.781 39.8189 85.9601 39.9128C86.1393 40.0067 86.3356 40.0635 86.5372 40.0797C86.7389 40.096 86.9417 40.0714 87.1336 40.0074C87.3255 39.9434 87.5026 39.8414 87.6541 39.7074C87.8057 39.5735 87.9286 39.4103 88.0156 39.2277C88.1027 39.045 88.1519 38.8467 88.1605 38.6446C88.1691 38.4425 88.1368 38.2408 88.0656 38.0514C87.4942 36.3371 86.1708 33.8648 83.9903 31.7956C81.7887 29.7053 78.6759 28 74.6096 28C74.2107 28 73.8282 28.1584 73.5462 28.4405C73.2642 28.7225 73.1058 29.105 73.1058 29.5038C73.1058 29.9026 73.2642 30.2851 73.5462 30.5672C73.8282 30.8492 74.2107 31.0076 74.6096 31.0076C77.7616 31.0076 80.1616 32.3099 81.9181 33.9791Z" fill="url(#paint11_linear_81_2591)"/>
<path d="M59.126 86.126C39 86.126 39 66 39 66H79.252C79.252 66 79.252 86.126 59.126 86.126Z" fill="url(#paint12_radial_81_2591)"/>
<path d="M59.1749 94.7518C71.2505 94.7518 73.1769 82.6762 73.5506 79.6573C73.8382 77.2134 72.5443 75.9771 71.1355 75.1433C69.7267 74.3095 65.5002 73.5332 59.1749 73.5332C52.8496 73.5332 48.6519 74.3095 47.2143 75.1433C45.7767 75.9771 44.4829 77.2134 44.7992 79.6573C45.173 82.6762 47.0993 94.7518 59.1749 94.7518Z" fill="url(#paint13_radial_81_2591)"/>
<g opacity="0.5" filter="url(#filter0_f_81_2591)">
<path d="M64.8792 87.5637C67.7544 86.1261 70.6295 83.251 70.6295 78.9382" stroke="white" stroke-width="0.699985"/>
</g>
<path d="M78.8495 70.1115C79.1083 68.7889 79.252 67.4088 79.252 66H39C39 67.4088 39.1438 68.7601 39.4025 70.1115H78.8495Z" fill="url(#paint14_linear_81_2591)"/>
<g filter="url(#filter1_f_81_2591)">
<ellipse cx="19" cy="67" rx="9" ry="10" fill="#FF0000" fill-opacity="0.33"/>
</g>
<g filter="url(#filter2_f_81_2591)">
<ellipse cx="97" cy="67" rx="9" ry="10" fill="#FF0000" fill-opacity="0.33"/>
</g>
<defs>
<filter id="filter0_f_81_2591" x="64.0227" y="78.2382" width="7.65675" height="10.3384" filterUnits="userSpaceOnUse" color-interpolation-filters="sRGB">
<feFlood flood-opacity="0" result="BackgroundImageFix"/>
<feBlend mode="normal" in="SourceGraphic" in2="BackgroundImageFix" result="shape"/>
<feGaussianBlur stdDeviation="0.349993" result="effect1_foregroundBlur_81_2591"/>
</filter>
<filter id="filter1_f_81_2591" x="0" y="47" width="38" height="40" filterUnits="userSpaceOnUse" color-interpolation-filters="sRGB">
<feFlood flood-opacity="0" result="BackgroundImageFix"/>
<feBlend mode="normal" in="SourceGraphic" in2="BackgroundImageFix" result="shape"/>
<feGaussianBlur stdDeviation="5" result="effect1_foregroundBlur_81_2591"/>
</filter>
<filter id="filter2_f_81_2591" x="78" y="47" width="38" height="40" filterUnits="userSpaceOnUse" color-interpolation-filters="sRGB">
<feFlood flood-opacity="0" result="BackgroundImageFix"/>
<feBlend mode="normal" in="SourceGraphic" in2="BackgroundImageFix" result="shape"/>
<feGaussianBlur stdDeviation="5" result="effect1_foregroundBlur_81_2591"/>
</filter>
<radialGradient id="paint0_radial_81_2591" cx="0" cy="0" r="1" gradientUnits="userSpaceOnUse" gradientTransform="translate(97.5255 28.7503) rotate(132.839) scale(154.042)">
<stop stop-color="#FFF478"/>
<stop offset="0.475" stop-color="#FFB02E"/>
<stop offset="1" stop-color="#F70A8D"/>
</radialGradient>
<radialGradient id="paint1_radial_81_2591" cx="0" cy="0" r="1" gradientUnits="userSpaceOnUse" gradientTransform="translate(97.52 28.7547) rotate(131.878) scale(159.979)">
<stop stop-color="#FFF478"/>
<stop offset="0.475" stop-color="#FFB02E"/>
<stop offset="1" stop-color="#F70A8D"/>
</radialGradient>
<radialGradient id="paint2_radial_81_2591" cx="0" cy="0" r="1" gradientUnits="userSpaceOnUse" gradientTransform="translate(58.5013 43.1269) rotate(101.31) scale(73.3038 93.8882)">
<stop offset="0.788" stop-color="#F59639" stop-opacity="0"/>
<stop offset="0.973" stop-color="#FF7DCE"/>
</radialGradient>
<radialGradient id="paint3_radial_81_2591" cx="0" cy="0" r="1" gradientUnits="userSpaceOnUse" gradientTransform="translate(66.719 49.2892) rotate(135) scale(168.455)">
<stop offset="0.315" stop-opacity="0"/>
<stop offset="1"/>
</radialGradient>
<radialGradient id="paint4_radial_81_2591" cx="0" cy="0" r="1" gradientUnits="userSpaceOnUse" gradientTransform="translate(58.5039 61.6147) rotate(77.692) scale(115.612)">
<stop offset="0.508" stop-color="#7D6133" stop-opacity="0"/>
<stop offset="1" stop-color="#715B32"/>
</radialGradient>
<radialGradient id="paint5_radial_81_2591" cx="0" cy="0" r="1" gradientUnits="userSpaceOnUse" gradientTransform="translate(60.5578 59.5578) rotate(55.713) scale(54.6843 39.6381)">
<stop stop-color="#FFB849"/>
<stop offset="1" stop-color="#FFB847" stop-opacity="0"/>
</radialGradient>
<radialGradient id="paint6_radial_81_2591" cx="0" cy="0" r="1" gradientUnits="userSpaceOnUse" gradientTransform="translate(76.9876 65.719) rotate(9.86582) scale(47.9445)">
<stop stop-color="#FFA64B"/>
<stop offset="0.9" stop-color="#FFAE46" stop-opacity="0"/>
</radialGradient>
<radialGradient id="paint7_radial_81_2591" cx="0" cy="0" r="1" gradientUnits="userSpaceOnUse" gradientTransform="translate(64.6655 53.3978) rotate(43.971) scale(242.556)">
<stop offset="0.185" stop-opacity="0"/>
<stop offset="1" stop-opacity="0.4"/>
</radialGradient>
<radialGradient id="paint8_radial_81_2591" cx="0" cy="0" r="1" gradientUnits="userSpaceOnUse" gradientTransform="translate(47.8044 49.3763) rotate(90) scale(7.46676 10.8687)">
<stop offset="0.337" stop-color="#4D274B"/>
<stop offset="0.628" stop-color="#514047"/>
<stop offset="1" stop-color="#4A342F"/>
</radialGradient>
<linearGradient id="paint9_linear_81_2591" x1="74.2932" y1="43" x2="70.686" y2="50.6476" gradientUnits="userSpaceOnUse">
<stop stop-color="#553B3E"/>
<stop offset="1" stop-color="#3D2432"/>
</linearGradient>
<linearGradient id="paint10_linear_81_2591" x1="40.5243" y1="47.2491" x2="40.5243" y2="41.8354" gradientUnits="userSpaceOnUse">
<stop offset="0.03" stop-color="#524049"/>
<stop offset="1" stop-color="#4A2C42"/>
</linearGradient>
<linearGradient id="paint11_linear_81_2591" x1="85.6385" y1="41.2335" x2="85.6385" y2="35.8198" gradientUnits="userSpaceOnUse">
<stop offset="0.03" stop-color="#524049"/>
<stop offset="1" stop-color="#4A2C42"/>
</linearGradient>
<radialGradient id="paint12_radial_81_2591" cx="0" cy="0" r="1" gradientUnits="userSpaceOnUse" gradientTransform="translate(59.126 90.5997) rotate(-90) scale(24.5985 49.1969)">
<stop stop-color="#F70A8D"/>
<stop offset="1" stop-color="#89029C"/>
</radialGradient>
<radialGradient id="paint13_radial_81_2591" cx="0" cy="0" r="1" gradientUnits="userSpaceOnUse" gradientTransform="translate(60.5665 97.6269) rotate(-93.0128) scale(27.3517 47.5489)">
<stop stop-color="#FF1C4A"/>
<stop offset="0.766" stop-color="#FF2B8F"/>
<stop offset="0.864" stop-color="#BB0773"/>
<stop offset="0.886" stop-color="#9F0762"/>
</radialGradient>
<linearGradient id="paint14_linear_81_2591" x1="59.126" y1="66" x2="59.126" y2="70.1115" gradientUnits="userSpaceOnUse">
<stop stop-color="#ECCDFF"/>
<stop offset="1" stop-color="white"/>
</linearGradient>
</defs>
</svg>
