<svg width="18" height="19" viewBox="0 0 18 19" fill="none" xmlns="http://www.w3.org/2000/svg">
<path fill-rule="evenodd" clip-rule="evenodd" d="M1.72385 6.3125C1.99948 4.19655 3.80891 2.5625 6 2.5625H12C14.1911 2.5625 16.0005 4.19655 16.2761 6.3125H1.72385ZM1.6875 7.4375V12.875C1.6875 15.2567 3.61827 17.1875 6 17.1875H12C14.3817 17.1875 16.3125 15.2567 16.3125 12.875V7.4375H1.6875ZM4.875 10.4375C4.56434 10.4375 4.3125 10.1857 4.3125 9.875C4.3125 9.56434 4.56434 9.3125 4.875 9.3125H5.625C5.93566 9.3125 6.1875 9.56434 6.1875 9.875C6.1875 10.1857 5.93566 10.4375 5.625 10.4375H4.875ZM8.0625 9.875C8.0625 10.1857 8.31434 10.4375 8.625 10.4375H9.375C9.68566 10.4375 9.9375 10.1857 9.9375 9.875C9.9375 9.56434 9.68566 9.3125 9.375 9.3125H8.625C8.31434 9.3125 8.0625 9.56434 8.0625 9.875ZM12.375 10.4375C12.0643 10.4375 11.8125 10.1857 11.8125 9.875C11.8125 9.56434 12.0643 9.3125 12.375 9.3125H13.125C13.4357 9.3125 13.6875 9.56434 13.6875 9.875C13.6875 10.1857 13.4357 10.4375 13.125 10.4375H12.375ZM4.3125 12.875C4.3125 13.1857 4.56434 13.4375 4.875 13.4375H5.625C5.93566 13.4375 6.1875 13.1857 6.1875 12.875C6.1875 12.5643 5.93566 12.3125 5.625 12.3125H4.875C4.56434 12.3125 4.3125 12.5643 4.3125 12.875ZM8.625 13.4375C8.31434 13.4375 8.0625 13.1857 8.0625 12.875C8.0625 12.5643 8.31434 12.3125 8.625 12.3125H9.375C9.68566 12.3125 9.9375 12.5643 9.9375 12.875C9.9375 13.1857 9.68566 13.4375 9.375 13.4375H8.625ZM11.8125 12.875C11.8125 13.1857 12.0643 13.4375 12.375 13.4375H13.125C13.4357 13.4375 13.6875 13.1857 13.6875 12.875C13.6875 12.5643 13.4357 12.3125 13.125 12.3125H12.375C12.0643 12.3125 11.8125 12.5643 11.8125 12.875ZM12.375 1.4375C12.0643 1.4375 11.8125 1.68934 11.8125 2L11.8125 4.25C11.8125 4.56066 12.0643 4.8125 12.375 4.8125C12.6857 4.8125 12.9375 4.56066 12.9375 4.25L12.9375 2C12.9375 1.68934 12.6857 1.4375 12.375 1.4375ZM5.625 1.4375C5.31434 1.4375 5.0625 1.68934 5.0625 2L5.0625 4.25C5.0625 4.56066 5.31434 4.8125 5.625 4.8125C5.93566 4.8125 6.1875 4.56066 6.1875 4.25L6.1875 2C6.1875 1.68934 5.93566 1.4375 5.625 1.4375Z" fill="#3C5792"/>
</svg>
