<svg width="24" height="24" viewBox="0 0 24 24" fill="none" xmlns="http://www.w3.org/2000/svg">
<path d="M9.2 16L12 13.9L14.75 16L13.7 12.6L16.5 10.4H13.1L12 7L10.9 10.4H7.5L10.25 12.6L9.2 16ZM4 20C3.45 20 2.97933 19.8043 2.588 19.413C2.19667 19.0217 2.00067 18.5507 2 18V14.625C2 14.4417 2.05833 14.2833 2.175 14.15C2.29167 14.0167 2.44167 13.9333 2.625 13.9C3.025 13.7667 3.35433 13.525 3.613 13.175C3.87167 12.825 4.00067 12.4333 4 12C3.99933 11.5667 3.87033 11.175 3.613 10.825C3.35567 10.475 3.02633 10.2333 2.625 10.1C2.44167 10.0667 2.29167 9.98333 2.175 9.85C2.05833 9.71667 2 9.55833 2 9.375V6C2 5.45 2.196 4.97933 2.588 4.588C2.98 4.19667 3.45067 4.00067 4 4H20C20.55 4 21.021 4.196 21.413 4.588C21.805 4.98 22.0007 5.45067 22 6V9.375C22 9.55833 21.9417 9.71667 21.825 9.85C21.7083 9.98333 21.5583 10.0667 21.375 10.1C20.975 10.2333 20.646 10.475 20.388 10.825C20.13 11.175 20.0007 11.5667 20 12C19.9993 12.4333 20.1287 12.825 20.388 13.175C20.6473 13.525 20.9763 13.7667 21.375 13.9C21.5583 13.9333 21.7083 14.0167 21.825 14.15C21.9417 14.2833 22 14.4417 22 14.625V18C22 18.55 21.8043 19.021 21.413 19.413C21.0217 19.805 20.5507 20.0007 20 20H4ZM4 18H20V15.45C19.3833 15.0833 18.8957 14.596 18.537 13.988C18.1783 13.38 17.9993 12.7173 18 12C18.0007 11.2827 18.18 10.6203 18.538 10.013C18.896 9.40567 19.3833 8.918 20 8.55V6H4V8.55C4.61667 8.91667 5.10433 9.40433 5.463 10.013C5.82167 10.6217 6.00067 11.284 6 12C5.99933 12.716 5.82033 13.3787 5.463 13.988C5.10567 14.5973 4.618 15.0847 4 15.45V18Z" fill="#030303"/>
</svg>
