<svg width="64" height="180" viewBox="0 0 64 180" fill="none" xmlns="http://www.w3.org/2000/svg">
<path d="M8.7071 0.292889C8.31658 -0.0976334 7.68341 -0.0976333 7.29289 0.292889L0.92893 6.65685C0.538405 7.04738 0.538405 7.68054 0.92893 8.07106C1.31945 8.46159 1.95262 8.46159 2.34314 8.07106L8 2.41421L13.6569 8.07106C14.0474 8.46159 14.6805 8.46159 15.0711 8.07106C15.4616 7.68054 15.4616 7.04737 15.0711 6.65685L8.7071 0.292889ZM9 61L9 0.999996L7 0.999996L7 61L9 61Z" fill="white"/>
<path d="M7.29289 179.707C7.68341 180.098 8.31658 180.098 8.7071 179.707L15.0711 173.343C15.4616 172.953 15.4616 172.319 15.0711 171.929C14.6805 171.538 14.0474 171.538 13.6569 171.929L8 177.586L2.34314 171.929C1.95262 171.538 1.31945 171.538 0.92893 171.929C0.538405 172.319 0.538405 172.953 0.92893 173.343L7.29289 179.707ZM7 119L7 179L9 179L9 119L7 119Z" fill="white"/>
<path d="M28.384 103.195L11.42 88.6522C10.626 87.9716 10.0914 87.0543 9.93358 86.1022C9.7758 85.1501 10.0078 84.2411 10.5787 83.5752C11.1495 82.9093 12.0123 82.5411 12.9774 82.5515C13.9425 82.5619 14.9307 82.9501 15.7246 83.6308L30.6929 96.4622M29.695 95.6068L25.7035 92.185C25.3103 91.848 24.9767 91.4494 24.7217 91.0119C24.4666 90.5743 24.2952 90.1065 24.217 89.635C24.1389 89.1636 24.1557 88.6978 24.2663 88.2642C24.377 87.8306 24.5795 87.4377 24.8621 87.108C25.1448 86.7783 25.5021 86.5182 25.9136 86.3426C26.3252 86.1669 26.783 86.0792 27.2609 86.0843C27.7387 86.0895 28.2273 86.1874 28.6986 86.3726C29.17 86.5578 29.6149 86.8266 30.0081 87.1636L34.9975 91.4407M32.0038 88.8744C31.2099 88.1938 30.6752 87.2766 30.5174 86.3244C30.3596 85.3723 30.5917 84.4633 31.1625 83.7974C31.7333 83.1315 32.5962 82.7633 33.5612 82.7737C34.5263 82.7841 35.5145 83.1724 36.3085 83.853L39.3021 86.4193" stroke="white" stroke-width="1.5" stroke-linecap="round" stroke-linejoin="round"/>
<path d="M38.3042 85.5639C37.5103 84.8833 36.9756 83.9661 36.8178 83.0139C36.66 82.0618 36.8921 81.1528 37.4629 80.4869C38.0337 79.821 38.8966 79.4528 39.8616 79.4632C40.8267 79.4736 41.8149 79.8619 42.6089 80.5425L51.5898 88.2413C54.7657 90.9638 56.9044 94.6329 57.5355 98.4414C58.1667 102.25 57.2385 105.886 54.9552 108.549L52.0854 111.897L52.3839 111.549C50.9584 113.212 49.0627 114.428 46.8669 115.086C44.6712 115.744 42.2441 115.824 39.8037 115.319L38.9238 115.134C37.5208 114.837 32.1385 113.404 22.777 110.834C21.8227 110.572 20.9474 109.97 20.3374 109.157C19.7274 108.343 19.4308 107.382 19.5107 106.477C19.5966 105.514 20.02 104.663 20.7137 104.059C21.4075 103.454 22.332 103.131 23.341 103.14L28.384 103.195" stroke="white" stroke-width="1.5" stroke-linecap="round" stroke-linejoin="round"/>
</svg>
