<svg width="24" height="24" viewBox="0 0 24 24" fill="none" xmlns="http://www.w3.org/2000/svg">
<g clip-path="url(#clip0_366_17)">
<path d="M12.1311 1C18.8327 1 24.2644 5.23357 24.2644 10.4574C24.2644 15.68 18.8327 19.9135 12.1322 19.9135C11.4651 19.9124 10.7987 19.8699 10.1368 19.7865L5.04354 23.1176C4.46466 23.4238 4.26014 23.3903 4.49816 22.6404L5.52882 18.3907C2.20113 16.7037 0 13.7804 0 10.4574C0 5.23472 5.43061 1 12.1322 1M18.9586 10.3129L20.6571 8.66756C20.7551 8.56578 20.8098 8.42993 20.8096 8.28863C20.8095 8.14733 20.7545 8.01161 20.6562 7.91006C20.558 7.80851 20.4241 7.74906 20.2829 7.74423C20.1417 7.7394 20.0041 7.78957 19.8991 7.88417L17.6714 10.0402V8.25853C17.6714 8.11389 17.614 7.97517 17.5117 7.8729C17.4094 7.77062 17.2707 7.71316 17.1261 7.71316C16.9814 7.71316 16.8427 7.77062 16.7404 7.8729C16.6382 7.97517 16.5807 8.11389 16.5807 8.25853V11.213C16.5615 11.2974 16.5615 11.3851 16.5807 11.4695V13.1322C16.5807 13.2769 16.6382 13.4156 16.7404 13.5179C16.8427 13.6201 16.9814 13.6776 17.1261 13.6776C17.2707 13.6776 17.4094 13.6201 17.5117 13.5179C17.614 13.4156 17.6714 13.2769 17.6714 13.1322V11.5573L18.1648 11.0801L19.8148 13.4292C19.856 13.4878 19.9083 13.5378 19.9688 13.5762C20.0293 13.6146 20.0968 13.6407 20.1674 13.6531C20.238 13.6654 20.3104 13.6637 20.3803 13.6481C20.4503 13.6325 20.5164 13.6032 20.5751 13.562C20.6337 13.5208 20.6837 13.4685 20.7221 13.408C20.7605 13.3475 20.7866 13.28 20.799 13.2094C20.8113 13.1388 20.8096 13.0665 20.794 12.9965C20.7784 12.9266 20.7492 12.8604 20.708 12.8018L18.9586 10.3129ZM15.5408 12.536H13.8538V8.27586C13.8474 8.13572 13.7872 8.00345 13.6857 7.90655C13.5842 7.80966 13.4493 7.75559 13.309 7.75559C13.1687 7.75559 13.0338 7.80966 12.9324 7.90655C12.8309 8.00345 12.7707 8.13572 12.7642 8.27586V13.0814C12.7642 13.3818 13.0069 13.6268 13.3085 13.6268H15.5408C15.6854 13.6268 15.8242 13.5693 15.9264 13.467C16.0287 13.3647 16.0862 13.226 16.0862 13.0814C16.0862 12.9367 16.0287 12.798 15.9264 12.6957C15.8242 12.5935 15.6854 12.536 15.5408 12.536ZM8.77333 11.2754L9.57752 9.3019L10.3147 11.2743L8.77333 11.2754ZM11.6885 11.8381L11.6908 11.8196C11.6904 11.6823 11.638 11.5501 11.5441 11.4499L10.3355 8.21463C10.2848 8.06045 10.1883 7.92541 10.0589 7.82754C9.92941 7.72968 9.77317 7.67365 9.61103 7.66694C9.44784 7.66687 9.28844 7.71616 9.15378 7.80834C9.01913 7.90051 8.9155 8.03127 8.85652 8.18343L6.93616 12.8919C6.88146 13.0258 6.8822 13.176 6.93821 13.3093C6.99423 13.4427 7.10093 13.5484 7.23484 13.6031C7.36876 13.6578 7.51892 13.657 7.65229 13.601C7.78567 13.545 7.89132 13.4383 7.94602 13.3044L8.32963 12.365H10.7214L11.0657 13.2894C11.0892 13.3585 11.1263 13.4221 11.1749 13.4766C11.2234 13.5311 11.2824 13.5753 11.3484 13.6066C11.4143 13.6378 11.4858 13.6556 11.5587 13.6587C11.6317 13.6618 11.7045 13.6503 11.7728 13.6248C11.8412 13.5992 11.9037 13.5603 11.9568 13.5101C12.0098 13.46 12.0522 13.3997 12.0815 13.3329C12.1108 13.266 12.1264 13.194 12.1274 13.121C12.1284 13.0481 12.1147 12.9756 12.0872 12.9081L11.6885 11.8381ZM7.84897 8.28164C7.84927 8.21003 7.83541 8.13907 7.80818 8.07284C7.78096 8.00661 7.7409 7.94642 7.69032 7.89573C7.63974 7.84505 7.57963 7.80486 7.51346 7.77749C7.44729 7.75013 7.37636 7.73612 7.30475 7.73627H3.55532C3.41068 7.73627 3.27196 7.79373 3.16968 7.896C3.0674 7.99828 3.00995 8.137 3.00995 8.28164C3.00995 8.42628 3.0674 8.565 3.16968 8.66728C3.27196 8.76955 3.41068 8.82701 3.55532 8.82701H4.89564V13.1438C4.89564 13.2884 4.9531 13.4271 5.05537 13.5294C5.15765 13.6317 5.29637 13.6891 5.44101 13.6891C5.58565 13.6891 5.72437 13.6317 5.82665 13.5294C5.92892 13.4271 5.98638 13.2884 5.98638 13.1438V8.82701H7.30359C7.3753 8.82732 7.44635 8.81342 7.51266 8.78612C7.57897 8.75882 7.63921 8.71866 7.68991 8.66796C7.74062 8.61726 7.78078 8.55701 7.80807 8.49071C7.83537 8.4244 7.84927 8.35335 7.84897 8.28164Z" fill="#D8F1BC"/>
</g>
<defs>
<clipPath id="clip0_366_17">
<rect width="24" height="24" fill="white"/>
</clipPath>
</defs>
</svg>
