<svg width="24" height="19" viewBox="0 0 24 19" fill="none" xmlns="http://www.w3.org/2000/svg">
<path fill-rule="evenodd" clip-rule="evenodd" d="M10.3571 -0.686627C10.4564 -0.587543 10.5353 -0.469835 10.589 -0.340245C10.6428 -0.210655 10.6705 -0.0717301 10.6705 0.0685735C10.6705 0.208877 10.6428 0.347802 10.589 0.477392C10.5353 0.606982 10.4564 0.724689 10.3571 0.823774L3.64351 7.53524H22.4019C22.6848 7.53524 22.9561 7.64762 23.1562 7.84766C23.3562 8.0477 23.4686 8.31901 23.4686 8.60191C23.4686 8.8848 23.3562 9.15611 23.1562 9.35615C22.9561 9.55619 22.6848 9.66857 22.4019 9.66857H3.64351L10.3571 16.38C10.5574 16.5803 10.6699 16.852 10.6699 17.1352C10.6699 17.4185 10.5574 17.6901 10.3571 17.8904C10.1568 18.0907 9.88516 18.2033 9.60191 18.2033C9.31865 18.2033 9.047 18.0907 8.84671 17.8904L0.313373 9.35711C0.214038 9.25802 0.135227 9.14032 0.0814534 9.01073C0.0276797 8.88114 0 8.74221 0 8.60191C0 8.4616 0.0276797 8.32268 0.0814534 8.19309C0.135227 8.0635 0.214038 7.94579 0.313373 7.84671L8.84671 -0.686627C8.94579 -0.785962 9.0635 -0.864773 9.19309 -0.918547C9.32268 -0.97232 9.4616 -1 9.60191 -1C9.74221 -1 9.88114 -0.97232 10.0107 -0.918547C10.1403 -0.864773 10.258 -0.785962 10.3571 -0.686627Z" fill="#030303"/>
</svg>
