<svg width="24" height="20" viewBox="0 0 24 20" fill="none" xmlns="http://www.w3.org/2000/svg">
<path fill-rule="evenodd" clip-rule="evenodd" d="M10.3571 0.313373C10.4564 0.412457 10.5353 0.530165 10.589 0.659755C10.6428 0.789345 10.6705 0.92827 10.6705 1.06857C10.6705 1.20888 10.6428 1.3478 10.589 1.47739C10.5353 1.60698 10.4564 1.72469 10.3571 1.82377L3.64351 8.53524H22.4019C22.6848 8.53524 22.9561 8.64762 23.1562 8.84766C23.3562 9.0477 23.4686 9.31901 23.4686 9.60191C23.4686 9.8848 23.3562 10.1561 23.1562 10.3562C22.9561 10.5562 22.6848 10.6686 22.4019 10.6686H3.64351L10.3571 17.38C10.5574 17.5803 10.6699 17.852 10.6699 18.1352C10.6699 18.4185 10.5574 18.6901 10.3571 18.8904C10.1568 19.0907 9.88516 19.2033 9.60191 19.2033C9.31865 19.2033 9.047 19.0907 8.84671 18.8904L0.313373 10.3571C0.214038 10.258 0.135227 10.1403 0.0814534 10.0107C0.0276797 9.88114 0 9.74221 0 9.60191C0 9.4616 0.0276797 9.32268 0.0814534 9.19309C0.135227 9.0635 0.214038 8.94579 0.313373 8.84671L8.84671 0.313373C8.94579 0.214038 9.0635 0.135227 9.19309 0.0814534C9.32268 0.0276797 9.4616 0 9.60191 0C9.74221 0 9.88114 0.0276797 10.0107 0.0814534C10.1403 0.135227 10.258 0.214038 10.3571 0.313373Z" fill="#030303"/>
</svg>
