<svg width="21" height="24" viewBox="0 0 21 24" fill="none" xmlns="http://www.w3.org/2000/svg">
<path fill-rule="evenodd" clip-rule="evenodd" d="M2.78979 10.598C2.78979 6.48303 6.15887 3.15869 10.3006 3.15869C14.4423 3.15869 17.8114 6.48303 17.8114 10.598C17.8114 13.1572 16.3189 15.6832 14.7372 17.5218C13.9367 18.4523 13.0871 19.2378 12.3378 19.7965C11.9637 20.0754 11.6041 20.3055 11.2796 20.469C10.9753 20.6222 10.6279 20.7554 10.3006 20.7554C9.97335 20.7554 9.6259 20.6222 9.32165 20.469C8.9971 20.3055 8.63755 20.0754 8.26345 19.7965C7.51406 19.2378 6.66447 18.4523 5.86402 17.5218C4.28227 15.6832 2.78979 13.1572 2.78979 10.598ZM10.3005 12.8154C8.87833 12.8154 7.7254 11.6625 7.7254 10.2403C7.7254 8.81807 8.87833 7.66514 10.3005 7.66514C11.7227 7.66514 12.8757 8.81807 12.8757 10.2403C12.8757 11.6625 11.7227 12.8154 10.3005 12.8154Z" fill="white"/>
</svg>
