<svg width="54" height="41" viewBox="0 0 54 41" fill="none" xmlns="http://www.w3.org/2000/svg">
<rect width="53.9658" height="41" rx="17.6615" fill="#F1F4ED"/>
<path d="M22.4522 13.3878C19.7431 12.9975 20.0296 9 22.7666 9H32.2424C34.8721 9 35.5151 12.6611 33.0428 13.5572C31.9479 13.9541 31.3092 15.0933 31.5416 16.2344L33.5154 25.9227C34.0539 28.5663 32.1504 31.0827 29.46 31.2837L28.6766 31.3422C28.5073 31.3548 28.3373 31.3543 28.1681 31.3407L26.6225 31.216C24.1315 31.015 21.7906 29.9444 20.0093 28.1916L19.8883 28.0726C18.1923 26.4036 19.8376 23.5732 22.1271 24.2209C22.5449 24.3391 22.9207 24.5732 23.211 24.896L23.2558 24.9459C24.7399 26.5963 27.4783 25.6737 27.661 23.4617L28.2308 16.5654C28.3384 15.2635 27.4138 14.1027 26.1207 13.9164L22.4522 13.3878Z" fill="url(#paint0_linear_169_2)"/>
<path d="M24.3502 12.6508C24.6502 12.6508 24.9379 12.5306 25.15 12.3167C25.3621 12.1027 25.4813 11.8125 25.4813 11.51C25.4813 11.2074 25.3621 10.9172 25.15 10.7032C24.9379 10.4893 24.6502 10.3691 24.3502 10.3691C24.0502 10.3691 23.7625 10.4893 23.5504 10.7032C23.3382 10.9172 23.2191 11.2074 23.2191 11.51C23.2191 11.8125 23.3382 12.1027 23.5504 12.3167C23.7625 12.5306 24.0502 12.6508 24.3502 12.6508Z" fill="url(#paint1_linear_169_2)"/>
<path d="M30.2321 12.6508C30.5321 12.6508 30.8198 12.5306 31.0319 12.3167C31.244 12.1027 31.3632 11.8125 31.3632 11.51C31.3632 11.2074 31.244 10.9172 31.0319 10.7032C30.8198 10.4893 30.5321 10.3691 30.2321 10.3691C29.9321 10.3691 29.6444 10.4893 29.4323 10.7032C29.2201 10.9172 29.101 11.2074 29.101 11.51C29.101 11.8125 29.2201 12.1027 29.4323 12.3167C29.6444 12.5306 29.9321 12.6508 30.2321 12.6508Z" fill="url(#paint2_linear_169_2)"/>
<path d="M23.6716 19.496C23.6716 18.9919 24.0802 18.5833 24.5843 18.5833H31.3632V20.4087H24.5843C24.0802 20.4087 23.6716 20 23.6716 19.496Z" fill="#8ADF28"/>
<defs>
<linearGradient id="paint0_linear_169_2" x1="25.8433" y1="30.9049" x2="25.8433" y2="9.00001" gradientUnits="userSpaceOnUse">
<stop offset="0.0001" stop-color="#8ADF28"/>
<stop offset="0.625" stop-color="#8ADF28"/>
</linearGradient>
<linearGradient id="paint1_linear_169_2" x1="25.22" y1="10.3691" x2="24.2546" y2="12.2357" gradientUnits="userSpaceOnUse">
<stop stop-color="#553B3E"/>
<stop offset="1" stop-color="#3D2432"/>
</linearGradient>
<linearGradient id="paint2_linear_169_2" x1="31.1019" y1="10.3691" x2="30.1365" y2="12.2357" gradientUnits="userSpaceOnUse">
<stop stop-color="#553B3E"/>
<stop offset="1" stop-color="#3D2432"/>
</linearGradient>
</defs>
</svg>
