<svg width="87" height="65" viewBox="0 0 87 65" fill="none" xmlns="http://www.w3.org/2000/svg">
<rect x="0.944458" width="85.5556" height="65" rx="28" fill="white"/>
<path d="M34.7778 21.5252C30.4829 20.9064 30.9372 14.569 35.2764 14.569V14.569H50.2989C54.4679 14.569 55.4874 20.3731 51.5679 21.7938V21.7938C49.8321 22.423 48.8194 24.229 49.188 26.0382L52.317 41.3976C53.1709 45.5888 50.1531 49.5781 45.8878 49.8967L44.6458 49.9895C44.3774 50.0096 44.1079 50.0088 43.8396 49.9871L41.3893 49.7894C37.4402 49.4708 33.729 47.7735 30.9051 44.9947L30.7133 44.806C28.0245 42.1601 30.6327 37.6728 34.2625 38.6997V38.6997C34.9249 38.8871 35.5206 39.2582 35.9809 39.77L36.0519 39.849C38.4048 42.4655 42.746 41.0029 43.0358 37.496L43.9391 26.563C44.1096 24.4988 42.6438 22.6587 40.5938 22.3633L34.7778 21.5252Z" fill="url(#paint0_linear_355_13)"/>
<path d="M37.7869 20.357C38.2625 20.357 38.7187 20.1665 39.0549 19.8273C39.3912 19.4881 39.5802 19.028 39.5802 18.5483C39.5802 18.0686 39.3912 17.6086 39.0549 17.2694C38.7187 16.9302 38.2625 16.7396 37.7869 16.7396C37.3113 16.7396 36.8552 16.9302 36.5189 17.2694C36.1826 17.6086 35.9937 18.0686 35.9937 18.5483C35.9937 19.028 36.1826 19.4881 36.5189 19.8273C36.8552 20.1665 37.3113 20.357 37.7869 20.357Z" fill="url(#paint1_linear_355_13)"/>
<path d="M47.1118 20.357C47.5874 20.357 48.0435 20.1665 48.3798 19.8273C48.7161 19.4881 48.9051 19.028 48.9051 18.5483C48.9051 18.0686 48.7161 17.6086 48.3798 17.2694C48.0435 16.9302 47.5874 16.7396 47.1118 16.7396C46.6362 16.7396 46.1801 16.9302 45.8438 17.2694C45.5075 17.6086 45.3186 18.0686 45.3186 18.5483C45.3186 19.028 45.5075 19.4881 45.8438 19.8273C46.1801 20.1665 46.6362 20.357 47.1118 20.357Z" fill="url(#paint2_linear_355_13)"/>
<path d="M36.711 31.2091C36.711 30.4099 37.3588 29.7621 38.1579 29.7621H48.9051V32.656H38.1579C37.3588 32.656 36.711 32.0082 36.711 31.2091V31.2091Z" fill="#8ADF28"/>
<defs>
<linearGradient id="paint0_linear_355_13" x1="40.154" y1="49.2962" x2="40.154" y2="14.569" gradientUnits="userSpaceOnUse">
<stop offset="0.0001" stop-color="#8ADF28"/>
<stop offset="0.625" stop-color="#8ADF28"/>
</linearGradient>
<linearGradient id="paint1_linear_355_13" x1="39.1659" y1="16.7396" x2="37.6354" y2="19.6989" gradientUnits="userSpaceOnUse">
<stop stop-color="#553B3E"/>
<stop offset="1" stop-color="#3D2432"/>
</linearGradient>
<linearGradient id="paint2_linear_355_13" x1="48.4908" y1="16.7396" x2="46.9603" y2="19.6989" gradientUnits="userSpaceOnUse">
<stop stop-color="#553B3E"/>
<stop offset="1" stop-color="#3D2432"/>
</linearGradient>
</defs>
</svg>
