<svg width="24" height="24" viewBox="0 0 24 24" fill="none" xmlns="http://www.w3.org/2000/svg">
<path d="M12 21.5H14.9775C15.0188 20.1313 15.2195 19.3788 15.5795 19.2425C19.3345 17.8175 22 14.217 22 10H2C2 14.1255 4.5515 17.6615 8.1785 19.147C8.5575 19.3023 8.84067 20.0867 9.028 21.5H12Z" stroke="#030303" stroke-width="2" stroke-linejoin="round"/>
<path d="M7.22168 13.5115C7.40168 14.1049 7.63951 14.5952 7.93518 14.9825C8.24349 15.3792 8.60333 15.733 9.00518 16.0345M12.6072 10.013C13.7161 7.73091 14.8198 5.44624 15.9182 3.15903C16.4432 2.05403 17.5082 1.78803 18.4907 2.20803C19.4732 2.62803 19.8707 3.82903 19.4582 4.66653C19.2032 5.18386 18.3382 6.96236 16.8632 10.002" stroke="#030303" stroke-width="2" stroke-linecap="round"/>
</svg>
