<svg width="24" height="24" viewBox="0 0 24 24" fill="none" xmlns="http://www.w3.org/2000/svg">
<path fill-rule="evenodd" clip-rule="evenodd" d="M20.9743 4.92857C20.9918 4.71474 21.0004 4.50026 21 4.28571V3H18.75C17.0806 2.99972 15.4562 3.54097 14.1207 4.54247C12.7851 5.54398 11.8104 6.9517 11.343 8.55429C10.6225 7.62492 9.69879 6.87288 8.64263 6.35583C7.58647 5.83878 6.42593 5.57046 5.25 5.57143H3V6.85714C3 8.9031 3.81275 10.8653 5.25946 12.312C6.70617 13.7587 8.66833 14.5714 10.7143 14.5714H11.0357V20.0357C11.0357 20.2915 11.1373 20.5367 11.3181 20.7176C11.499 20.8984 11.7443 21 12 21C12.2557 21 12.501 20.8984 12.6818 20.7176C12.8627 20.5367 12.9643 20.2915 12.9643 20.0357V12H13.2857C15.2206 12.0003 17.0849 11.2735 18.509 9.96365C19.9331 8.65385 20.813 6.85671 20.9743 4.92857ZM12.999 10.0714C13.1571 8.6569 13.8312 7.35029 14.8922 6.4015C15.9531 5.4527 17.3266 4.9283 18.75 4.92857H19.0367C18.8786 6.3431 18.2045 7.64971 17.1435 8.5985C16.0826 9.5473 14.7091 10.0717 13.2857 10.0714H12.999ZM5.25 7.5C6.67334 7.49973 8.04685 8.02413 9.10784 8.97293C10.1688 9.92172 10.8428 11.2283 11.001 12.6429H10.7143C9.29094 12.6431 7.91743 12.1187 6.85644 11.1699C5.79545 10.2211 5.12143 8.91453 4.96328 7.5H5.25Z" fill="#030303"/>
</svg>
