<svg width="33" height="33" viewBox="0 0 33 33" fill="none" xmlns="http://www.w3.org/2000/svg">
<path d="M32.0132 0.0346952L0.459145 10.5553C0.329949 10.5982 0.216884 10.6795 0.134974 10.7883C0.0530644 10.897 0.00618736 11.0281 0.000571147 11.1642C-0.00504507 11.3002 0.0308657 11.4347 0.103532 11.5499C0.176199 11.665 0.28218 11.7553 0.407396 11.8088L12.0032 16.7787C12.064 16.805 12.1305 16.8151 12.1964 16.8081C12.2622 16.801 12.3251 16.777 12.3789 16.7384L23.7466 8.61561C24.0993 8.36645 24.5325 8.79961 24.2833 9.15228L16.1605 20.52C16.1225 20.5738 16.0991 20.6364 16.0924 20.7019C16.0857 20.7673 16.0959 20.8334 16.1221 20.8938L21.0901 32.4896C21.1434 32.6149 21.2336 32.721 21.3486 32.7938C21.4636 32.8666 21.5981 32.9027 21.7341 32.8973C21.8701 32.8919 22.0013 32.8452 22.1102 32.7635C22.219 32.6818 22.3005 32.5689 22.3436 32.4398L32.8642 0.883779C32.9038 0.765503 32.9097 0.638531 32.8811 0.517123C32.8525 0.395715 32.7906 0.284678 32.7024 0.196483C32.6142 0.108288 32.5032 0.0464268 32.3818 0.0178477C32.2604 -0.0107314 32.1315 -0.00489724 32.0132 0.0346952Z" fill="#77B72D"/>
</svg>
