<svg width="60" height="60" viewBox="0 0 60 60" fill="none" xmlns="http://www.w3.org/2000/svg">
<g clip-path="url(#clip0_108_2112)">
<path d="M10 10H25V25H10V10ZM50 10V25H35V10H50ZM35 37.5H40V32.5H35V27.5H40V32.5H45V27.5H50V32.5H45V37.5H50V45H45V50H40V45H32.5V50H27.5V40H35V37.5ZM40 37.5V45H45V37.5H40ZM10 50V35H25V50H10ZM15 15V20H20V15H15ZM40 15V20H45V15H40ZM15 40V45H20V40H15ZM10 27.5H15V32.5H10V27.5ZM22.5 27.5H32.5V37.5H27.5V32.5H22.5V27.5ZM27.5 15H32.5V25H27.5V15ZM5 5V15H0V5C0 3.67392 0.526784 2.40215 1.46447 1.46447C2.40215 0.526784 3.67392 0 5 0L15 0V5H5ZM55 0C56.3261 0 57.5979 0.526784 58.5355 1.46447C59.4732 2.40215 60 3.67392 60 5V15H55V5H45V0H55ZM5 45V55H15V60H5C3.67392 60 2.40215 59.4732 1.46447 58.5355C0.526784 57.5979 0 56.3261 0 55V45H5ZM55 55V45H60V55C60 56.3261 59.4732 57.5979 58.5355 58.5355C57.5979 59.4732 56.3261 60 55 60H45V55H55Z" fill="#030303"/>
</g>
<defs>
<clipPath id="clip0_108_2112">
<rect width="60" height="60" fill="white"/>
</clipPath>
</defs>
</svg>
