<svg width="19" height="18" viewBox="0 0 19 18" fill="none" xmlns="http://www.w3.org/2000/svg">
<path d="M13.12 11H12.2984L12.0072 10.73C13.0616 9.55402 13.6411 8.0527 13.64 6.5C13.64 5.21442 13.2435 3.95772 12.5007 2.8888C11.7579 1.81988 10.7022 0.986756 9.46694 0.494786C8.23171 0.00281635 6.8725 -0.125905 5.56119 0.124899C4.24988 0.375703 3.04536 0.994767 2.09996 1.90381C1.15455 2.81285 0.510726 3.97104 0.24989 5.23192C-0.0109464 6.49279 0.122924 7.79973 0.634573 8.98744C1.14622 10.1752 2.01267 11.1903 3.12434 11.9046C4.23602 12.6188 5.543 13 6.88 13C8.5544 13 10.0936 12.41 11.2792 11.43L11.56 11.71V12.5L16.76 17.49L18.3096 16L13.12 11ZM6.88 11C4.2904 11 2.2 8.99 2.2 6.5C2.2 4.01 4.2904 2 6.88 2C9.4696 2 11.56 4.01 11.56 6.5C11.56 8.99 9.4696 11 6.88 11Z" fill="#C1C1C1"/>
</svg>
