<svg width="24" height="24" viewBox="0 0 24 24" fill="none" xmlns="http://www.w3.org/2000/svg">
<path d="M11.002 6C12.2776 6.00006 13.5215 6.3974 14.5609 7.13681C15.6003 7.87622 16.3836 8.921 16.802 10.126L16.877 10.359L16.921 10.503H19.251C19.9511 10.5032 20.6248 10.7705 21.1347 11.2502C21.6445 11.73 21.9522 12.3862 21.995 13.085L22 13.252V14.252C21.9997 14.691 21.8345 15.1139 21.537 15.4368C21.2395 15.7596 20.8315 15.9589 20.394 15.995L20.251 16H18.625L18.866 16.584C19.0326 16.9887 19.0416 17.4411 18.8911 17.852C18.7406 18.263 18.4416 18.6026 18.053 18.804L17.916 18.868C17.7574 18.9327 17.5904 18.9745 17.42 18.992L17.249 19H15.462C15.1565 18.9998 14.8564 18.9197 14.5915 18.7676C14.3266 18.6155 14.1061 18.3967 13.952 18.133L13.88 17.996L13.341 16.853L13.395 16.846C11.995 17.032 10.578 17.054 9.174 16.912L8.677 16.855L8.142 17.991C8.00066 18.2914 7.77676 18.5455 7.49646 18.7234C7.21616 18.9014 6.89102 18.9959 6.559 18.996H4.755C4.4677 18.9959 4.18485 18.925 3.93142 18.7897C3.67799 18.6544 3.46178 18.4587 3.30187 18.2201C3.14196 17.9814 3.04327 17.707 3.01451 17.4211C2.98576 17.1353 3.02783 16.8467 3.137 16.581L3.57 15.531C3.09055 15.2426 2.69394 14.835 2.41881 14.3478C2.14368 13.8606 1.99939 13.3105 2 12.751C2.00025 12.5699 2.066 12.3951 2.1851 12.2587C2.3042 12.1223 2.46862 12.0336 2.648 12.009L2.75 12.002H4.63L5.127 10.359C5.50911 9.09832 6.28653 7.99396 7.34445 7.20903C8.40237 6.4241 9.68469 6.00022 11.002 6ZM17.779 15.693C17.007 16.003 16.2217 16.258 15.423 16.458L14.874 16.587L15.236 17.357C15.2602 17.4089 15.3015 17.4509 15.353 17.476L15.406 17.494L15.462 17.501H17.249C17.2843 17.501 17.3193 17.4934 17.3515 17.4789C17.3837 17.4644 17.4125 17.4432 17.436 17.4168C17.4594 17.3903 17.477 17.3592 17.4875 17.3254C17.498 17.2917 17.5012 17.2561 17.497 17.221L17.48 17.156L17.002 16H16.959L17.37 15.852L17.779 15.693ZM4.227 15.693L4.617 15.845L5.005 15.986L4.523 17.152C4.50738 17.19 4.50137 17.2313 4.50552 17.2722C4.50967 17.3131 4.52385 17.3524 4.54679 17.3865C4.56974 17.4206 4.60074 17.4486 4.63706 17.4678C4.67338 17.4871 4.71389 17.4971 4.755 17.497H6.559L6.616 17.49C6.65286 17.4815 6.6873 17.4648 6.71675 17.441C6.74619 17.4173 6.76987 17.3872 6.786 17.353L7.145 16.59L7.189 16.6C6.17747 16.3837 5.18647 16.0805 4.227 15.694M11.002 7.5C10.0439 7.50029 9.1093 7.79718 8.32666 8.34992C7.54403 8.90265 6.95169 9.68412 6.631 10.587L6.563 10.794L5.427 14.544L5.59 14.603C8.95987 15.7597 12.6117 15.8063 16.01 14.736L16.416 14.603L16.578 14.544L15.442 10.794C15.1746 9.91239 14.6509 9.13032 13.9374 8.54743C13.224 7.96455 12.3532 7.60723 11.436 7.521L11.22 7.505L11.002 7.5ZM4.025 14L4.176 13.5L3.669 13.502L3.694 13.554C3.78067 13.7207 3.89167 13.8693 4.025 14ZM17.375 12.002L18.131 14.5L20.251 14.501C20.3072 14.501 20.3617 14.482 20.4058 14.4472C20.4499 14.4123 20.481 14.3637 20.494 14.309L20.501 14.251V13.252C20.5009 12.9427 20.3861 12.6444 20.1789 12.4149C19.9717 12.1853 19.6867 12.0407 19.379 12.009L19.251 12.003L17.375 12.002Z" fill="#030303"/>
</svg>
