<svg width="36" height="35" viewBox="0 0 36 35" fill="none" xmlns="http://www.w3.org/2000/svg">
<path fill-rule="evenodd" clip-rule="evenodd" d="M7.9184 10.2177C7.91833 8.46786 8.37311 6.74801 9.23814 5.22689C10.1032 3.70576 11.3487 2.43561 12.8527 1.54102C14.3566 0.646426 16.0672 0.158118 17.8168 0.123991C19.5663 0.0898637 21.2947 0.51109 22.8324 1.34635C24.37 2.18161 25.6642 3.40223 26.5879 4.88846C27.5115 6.37469 28.033 8.0755 28.1012 9.82405C28.1694 11.5726 27.7819 13.3088 26.9767 14.8625C26.1715 16.4161 24.9763 17.7338 23.5083 18.6862C22.7757 19.165 22.3892 19.7736 22.3459 20.313H30.9932C32.1407 20.313 33.2412 20.7688 34.0526 21.5802C34.8639 22.3916 35.3198 23.492 35.3198 24.6395V28.966H0.70752V24.6395C0.70752 23.492 1.16335 22.3916 1.97473 21.5802C2.78611 20.7688 3.88658 20.313 5.03405 20.313H13.6813C13.6381 19.7736 13.2516 19.165 12.5189 18.6862C11.1069 17.7701 9.94638 16.5154 9.14289 15.0364C8.3394 13.5574 7.91848 11.9009 7.9184 10.2177ZM35.3198 31.8504V34.7347H0.70752V31.8504H35.3198Z" fill="#EC6A24"/>
</svg>
