<svg width="40" height="40" viewBox="0 0 40 40" fill="none" xmlns="http://www.w3.org/2000/svg">
<path d="M20 39.1666C17.3806 39.1666 14.9049 38.6632 12.573 37.6563C10.241 36.6494 8.20487 35.2758 6.46454 33.5355C4.72421 31.7951 3.3506 29.759 2.34371 27.4271C1.33682 25.0951 0.833374 22.6194 0.833374 20C0.833374 17.3486 1.33682 14.8652 2.34371 12.5499C3.3506 10.2346 4.72421 8.20609 6.46454 6.46448C8.20487 4.72287 10.241 3.34926 12.573 2.34365C14.9049 1.33804 17.3806 0.834591 20 0.833313C22.6514 0.833313 25.1354 1.33676 27.452 2.34365C29.7687 3.35054 31.7965 4.72415 33.5355 6.46448C35.2746 8.20481 36.6482 10.2333 37.6564 12.5499C38.6645 14.8665 39.168 17.3499 39.1667 20C39.1667 22.6194 38.6633 25.0951 37.6564 27.4271C36.6495 29.759 35.2759 31.7958 33.5355 33.5374C31.7952 35.279 29.7667 36.6526 27.4501 37.6582C25.1335 38.6638 22.6502 39.1666 20 39.1666ZM20 35.2375C20.8306 34.0875 21.5493 32.8896 22.1563 31.6437C22.7632 30.3979 23.2584 29.0722 23.6417 27.6666H16.3584C16.7417 29.0722 17.2368 30.3979 17.8438 31.6437C18.4507 32.8896 19.1695 34.0875 20 35.2375ZM15.0167 34.4708C14.4417 33.4166 13.9389 32.3222 13.5083 31.1876C13.0777 30.0529 12.718 28.8793 12.4292 27.6666H6.77504C7.70143 29.2639 8.85974 30.6535 10.25 31.8354C11.6402 33.0173 13.2291 33.8958 15.0167 34.4708ZM24.9834 34.4708C26.7723 33.8958 28.3618 33.0173 29.752 31.8354C31.1423 30.6535 32.2999 29.2639 33.225 27.6666H27.5709C27.2834 28.8805 26.9243 30.0548 26.4937 31.1895C26.0631 32.3241 25.5597 33.4179 24.9834 34.4708ZM5.14587 23.8333H11.6625C11.5667 23.1944 11.4952 22.5638 11.4479 21.9416C11.4006 21.3193 11.3763 20.6721 11.375 20C11.3738 19.3279 11.398 18.6813 11.4479 18.0603C11.4977 17.4393 11.5693 16.8081 11.6625 16.1666H5.14587C4.98615 16.8055 4.86668 17.4368 4.78746 18.0603C4.70824 18.6839 4.66798 19.3304 4.66671 20C4.66543 20.6695 4.70568 21.3167 4.78746 21.9416C4.86924 22.5664 4.98871 23.197 5.14587 23.8333ZM15.4959 23.8333H24.5042C24.6 23.1944 24.6722 22.5638 24.7208 21.9416C24.7693 21.3193 24.793 20.6721 24.7917 20C24.7904 19.3279 24.7662 18.6813 24.7189 18.0603C24.6716 17.4393 24.6 16.8081 24.5042 16.1666H15.4959C15.4 16.8055 15.3285 17.4368 15.2812 18.0603C15.2339 18.6839 15.2097 19.3304 15.2084 20C15.2071 20.6695 15.2314 21.3167 15.2812 21.9416C15.331 22.5664 15.4026 23.197 15.4959 23.8333ZM28.3375 23.8333H34.8542C35.0139 23.1944 35.134 22.5638 35.2145 21.9416C35.295 21.3193 35.3347 20.6721 35.3334 20C35.3321 19.3279 35.2925 18.6813 35.2145 18.0603C35.1366 17.4393 35.0165 16.8081 34.8542 16.1666H28.3375C28.4334 16.8055 28.5056 17.4368 28.5541 18.0603C28.6027 18.6839 28.6263 19.3304 28.625 20C28.6238 20.6695 28.5995 21.3167 28.5522 21.9416C28.5049 22.5664 28.4334 23.197 28.3375 23.8333ZM27.5709 12.3333H33.225C32.2987 10.7361 31.141 9.34651 29.752 8.16456C28.3631 6.98262 26.7735 6.10415 24.9834 5.52915C25.5584 6.58331 26.0618 7.67773 26.4937 8.8124C26.9256 9.94706 27.2847 11.1207 27.5709 12.3333ZM16.3584 12.3333H23.6417C23.2584 10.9278 22.7632 9.60206 22.1563 8.35623C21.5493 7.1104 20.8306 5.91248 20 4.76248C19.1695 5.91248 18.4507 7.1104 17.8438 8.35623C17.2368 9.60206 16.7417 10.9278 16.3584 12.3333ZM6.77504 12.3333H12.4292C12.7167 11.1194 13.0764 9.94515 13.5083 8.81048C13.9402 7.67581 14.443 6.58203 15.0167 5.52915C13.2278 6.10415 11.6383 6.98262 10.248 8.16456C8.85782 9.34651 7.70015 10.7361 6.77504 12.3333Z" fill="#009FE0"/>
</svg>
