                <svg
                    width="35"
                    height="24"
                    viewBox="0 0 35 24"
                    fill="none"
                    xmlns="http://www.w3.org/2000/svg"
                    className="flex-shrink-0 flex-grow-0"
                    preserveAspectRatio="xMidYMid meet"
                >
                    <path
                        d="M13.8925 17.1429L22.7897 12L13.8925 6.85714V17.1429ZM33.7097 3.72C33.9325 4.52571 34.0868 5.60571 34.1897 6.97714C34.3097 8.34857 34.3611 9.53143 34.3611 10.56L34.4639 12C34.4639 15.7543 34.1897 18.5143 33.7097 20.28C33.2811 21.8229 32.2868 22.8171 30.7439 23.2457C29.9382 23.4686 28.4639 23.6229 26.2011 23.7257C23.9725 23.8457 21.9325 23.8971 20.0468 23.8971L17.3211 24C10.1382 24 5.66394 23.7257 3.89822 23.2457C2.35537 22.8171 1.36108 21.8229 0.932509 20.28C0.709651 19.4743 0.555366 18.3943 0.452509 17.0229C0.332509 15.6514 0.28108 14.4686 0.28108 13.44L0.178223 12C0.178223 8.24571 0.452508 5.48571 0.932509 3.72C1.36108 2.17714 2.35537 1.18286 3.89822 0.754286C4.70394 0.531429 6.17822 0.377143 8.44108 0.274285C10.6697 0.154285 12.7097 0.102857 14.5954 0.102857L17.3211 0C24.5039 0 28.9782 0.274286 30.7439 0.754286C32.2868 1.18286 33.2811 2.17714 33.7097 3.72Z"
                        fill="#D8F1BC"
                    ></path>
                </svg>